<mxfile host="app.diagrams.net" agent="Mozilla/5.0 (Windows NT 10.0; Win64; x64) AppleWebKit/537.36 (KHTML, like Gecko) Chrome/140.0.0.0 Safari/537.36" version="28.2.6">
  <diagram name="Página-1" id="7yDD56_2W0UGpzks0nXO">
    <mxGraphModel grid="1" page="1" gridSize="10" guides="1" tooltips="1" connect="1" arrows="1" fold="1" pageScale="1" pageWidth="827" pageHeight="1169" math="0" shadow="0">
      <root>
        <mxCell id="0" />
        <mxCell id="1" parent="0" />
        <mxCell id="iGiBMfjuA98sMZuKzQdS-1" style="edgeStyle=orthogonalEdgeStyle;rounded=0;orthogonalLoop=1;jettySize=auto;html=1;exitX=0.5;exitY=1;exitDx=0;exitDy=0;entryX=0;entryY=0.5;entryDx=0;entryDy=0;" edge="1" parent="1" source="TTsi2ahICnWk6I_0Sprz-1" target="TTsi2ahICnWk6I_0Sprz-3">
          <mxGeometry relative="1" as="geometry" />
        </mxCell>
        <mxCell id="iGiBMfjuA98sMZuKzQdS-2" style="edgeStyle=orthogonalEdgeStyle;rounded=0;orthogonalLoop=1;jettySize=auto;html=1;exitX=0.5;exitY=0;exitDx=0;exitDy=0;entryX=0;entryY=0.5;entryDx=0;entryDy=0;" edge="1" parent="1" source="TTsi2ahICnWk6I_0Sprz-1" target="TTsi2ahICnWk6I_0Sprz-2">
          <mxGeometry relative="1" as="geometry" />
        </mxCell>
        <mxCell id="TTsi2ahICnWk6I_0Sprz-1" value="&lt;span style=&quot;font-style: normal;&quot;&gt;Inicio&lt;/span&gt;" style="ellipse;whiteSpace=wrap;html=1;aspect=fixed;fontStyle=2;labelBackgroundColor=none;" vertex="1" parent="1">
          <mxGeometry x="360" y="360" width="80" height="80" as="geometry" />
        </mxCell>
        <mxCell id="iGiBMfjuA98sMZuKzQdS-3" style="edgeStyle=orthogonalEdgeStyle;rounded=0;orthogonalLoop=1;jettySize=auto;html=1;" edge="1" parent="1" source="TTsi2ahICnWk6I_0Sprz-2" target="TTsi2ahICnWk6I_0Sprz-4">
          <mxGeometry relative="1" as="geometry" />
        </mxCell>
        <mxCell id="TTsi2ahICnWk6I_0Sprz-2" value="Definir&lt;div&gt;Obj del&lt;/div&gt;&lt;div&gt;sistema&lt;/div&gt;" style="ellipse;whiteSpace=wrap;html=1;aspect=fixed;labelBackgroundColor=none;" vertex="1" parent="1">
          <mxGeometry x="520" y="160" width="80" height="80" as="geometry" />
        </mxCell>
        <mxCell id="iGiBMfjuA98sMZuKzQdS-4" style="edgeStyle=orthogonalEdgeStyle;rounded=0;orthogonalLoop=1;jettySize=auto;html=1;entryX=0;entryY=0.5;entryDx=0;entryDy=0;" edge="1" parent="1" source="TTsi2ahICnWk6I_0Sprz-3" target="TTsi2ahICnWk6I_0Sprz-5">
          <mxGeometry relative="1" as="geometry" />
        </mxCell>
        <mxCell id="TTsi2ahICnWk6I_0Sprz-3" value="Identificar&lt;div&gt;actores y&lt;/div&gt;&lt;div&gt;roles&lt;/div&gt;" style="ellipse;whiteSpace=wrap;html=1;aspect=fixed;labelBackgroundColor=none;" vertex="1" parent="1">
          <mxGeometry x="520" y="560" width="80" height="80" as="geometry" />
        </mxCell>
        <mxCell id="iGiBMfjuA98sMZuKzQdS-5" style="edgeStyle=orthogonalEdgeStyle;rounded=0;orthogonalLoop=1;jettySize=auto;html=1;entryX=0;entryY=0.5;entryDx=0;entryDy=0;" edge="1" parent="1" source="TTsi2ahICnWk6I_0Sprz-4" target="TTsi2ahICnWk6I_0Sprz-6">
          <mxGeometry relative="1" as="geometry" />
        </mxCell>
        <mxCell id="TTsi2ahICnWk6I_0Sprz-4" value="Definir requirimientos&lt;div&gt;funcionales&lt;/div&gt;" style="ellipse;whiteSpace=wrap;html=1;aspect=fixed;labelBackgroundColor=none;" vertex="1" parent="1">
          <mxGeometry x="720" y="160" width="80" height="80" as="geometry" />
        </mxCell>
        <mxCell id="iGiBMfjuA98sMZuKzQdS-6" style="edgeStyle=orthogonalEdgeStyle;rounded=0;orthogonalLoop=1;jettySize=auto;html=1;exitX=1;exitY=0.5;exitDx=0;exitDy=0;entryX=0;entryY=0.5;entryDx=0;entryDy=0;" edge="1" parent="1" source="TTsi2ahICnWk6I_0Sprz-5" target="TTsi2ahICnWk6I_0Sprz-7">
          <mxGeometry relative="1" as="geometry" />
        </mxCell>
        <mxCell id="TTsi2ahICnWk6I_0Sprz-5" value="Definir requirimientos no funcionales" style="ellipse;whiteSpace=wrap;html=1;aspect=fixed;labelBackgroundColor=none;" vertex="1" parent="1">
          <mxGeometry x="720" y="560" width="80" height="80" as="geometry" />
        </mxCell>
        <mxCell id="iGiBMfjuA98sMZuKzQdS-7" style="edgeStyle=orthogonalEdgeStyle;rounded=0;orthogonalLoop=1;jettySize=auto;html=1;exitX=1;exitY=0.5;exitDx=0;exitDy=0;" edge="1" parent="1" source="TTsi2ahICnWk6I_0Sprz-6" target="TTsi2ahICnWk6I_0Sprz-8">
          <mxGeometry relative="1" as="geometry" />
        </mxCell>
        <mxCell id="TTsi2ahICnWk6I_0Sprz-6" value="Relevamento&lt;div&gt;de procesos&lt;/div&gt;" style="ellipse;whiteSpace=wrap;html=1;aspect=fixed;labelBackgroundColor=none;" vertex="1" parent="1">
          <mxGeometry x="920" y="160" width="80" height="80" as="geometry" />
        </mxCell>
        <mxCell id="iGiBMfjuA98sMZuKzQdS-8" style="edgeStyle=orthogonalEdgeStyle;rounded=0;orthogonalLoop=1;jettySize=auto;html=1;" edge="1" parent="1" source="TTsi2ahICnWk6I_0Sprz-7" target="TTsi2ahICnWk6I_0Sprz-9">
          <mxGeometry relative="1" as="geometry" />
        </mxCell>
        <mxCell id="TTsi2ahICnWk6I_0Sprz-7" value="Entrevista/Encuesta&lt;div&gt;a usuarios finales&lt;/div&gt;" style="ellipse;whiteSpace=wrap;html=1;aspect=fixed;labelBackgroundColor=none;" vertex="1" parent="1">
          <mxGeometry x="920" y="560" width="80" height="80" as="geometry" />
        </mxCell>
        <mxCell id="iGiBMfjuA98sMZuKzQdS-9" style="edgeStyle=orthogonalEdgeStyle;rounded=0;orthogonalLoop=1;jettySize=auto;html=1;" edge="1" parent="1" source="TTsi2ahICnWk6I_0Sprz-8" target="TTsi2ahICnWk6I_0Sprz-10">
          <mxGeometry relative="1" as="geometry" />
        </mxCell>
        <mxCell id="TTsi2ahICnWk6I_0Sprz-8" value="Documentar procesos actuales" style="ellipse;whiteSpace=wrap;html=1;aspect=fixed;" vertex="1" parent="1">
          <mxGeometry x="1120" y="160" width="80" height="80" as="geometry" />
        </mxCell>
        <mxCell id="iGiBMfjuA98sMZuKzQdS-10" style="edgeStyle=orthogonalEdgeStyle;rounded=0;orthogonalLoop=1;jettySize=auto;html=1;exitX=1;exitY=0.5;exitDx=0;exitDy=0;entryX=0;entryY=0.5;entryDx=0;entryDy=0;" edge="1" parent="1" source="TTsi2ahICnWk6I_0Sprz-9" target="TTsi2ahICnWk6I_0Sprz-11">
          <mxGeometry relative="1" as="geometry" />
        </mxCell>
        <mxCell id="TTsi2ahICnWk6I_0Sprz-9" value="Casos de uso UML" style="ellipse;whiteSpace=wrap;html=1;aspect=fixed;" vertex="1" parent="1">
          <mxGeometry x="1120" y="560" width="80" height="80" as="geometry" />
        </mxCell>
        <mxCell id="iGiBMfjuA98sMZuKzQdS-11" style="edgeStyle=orthogonalEdgeStyle;rounded=0;orthogonalLoop=1;jettySize=auto;html=1;exitX=1;exitY=0.5;exitDx=0;exitDy=0;entryX=0;entryY=0.5;entryDx=0;entryDy=0;" edge="1" parent="1" source="TTsi2ahICnWk6I_0Sprz-10" target="TTsi2ahICnWk6I_0Sprz-12">
          <mxGeometry relative="1" as="geometry" />
        </mxCell>
        <mxCell id="TTsi2ahICnWk6I_0Sprz-10" value="Diagrama de secuencuas UML" style="ellipse;whiteSpace=wrap;html=1;aspect=fixed;" vertex="1" parent="1">
          <mxGeometry x="1320" y="160" width="80" height="80" as="geometry" />
        </mxCell>
        <mxCell id="iGiBMfjuA98sMZuKzQdS-12" style="edgeStyle=orthogonalEdgeStyle;rounded=0;orthogonalLoop=1;jettySize=auto;html=1;exitX=1;exitY=0.5;exitDx=0;exitDy=0;entryX=0;entryY=0.5;entryDx=0;entryDy=0;" edge="1" parent="1" source="TTsi2ahICnWk6I_0Sprz-11" target="TTsi2ahICnWk6I_0Sprz-13">
          <mxGeometry relative="1" as="geometry" />
        </mxCell>
        <mxCell id="TTsi2ahICnWk6I_0Sprz-11" value="Diseño de arquitectura&lt;div&gt;Fronterd_bakend&lt;/div&gt;" style="ellipse;whiteSpace=wrap;html=1;aspect=fixed;" vertex="1" parent="1">
          <mxGeometry x="1320" y="560" width="80" height="80" as="geometry" />
        </mxCell>
        <mxCell id="iGiBMfjuA98sMZuKzQdS-13" style="edgeStyle=orthogonalEdgeStyle;rounded=0;orthogonalLoop=1;jettySize=auto;html=1;exitX=1;exitY=0.5;exitDx=0;exitDy=0;" edge="1" parent="1" source="TTsi2ahICnWk6I_0Sprz-12" target="TTsi2ahICnWk6I_0Sprz-14">
          <mxGeometry relative="1" as="geometry" />
        </mxCell>
        <mxCell id="TTsi2ahICnWk6I_0Sprz-12" value="Diseño de base de datos regional" style="ellipse;whiteSpace=wrap;html=1;aspect=fixed;" vertex="1" parent="1">
          <mxGeometry x="1520" y="160" width="80" height="80" as="geometry" />
        </mxCell>
        <mxCell id="iGiBMfjuA98sMZuKzQdS-14" style="edgeStyle=orthogonalEdgeStyle;rounded=0;orthogonalLoop=1;jettySize=auto;html=1;exitX=1;exitY=0.5;exitDx=0;exitDy=0;entryX=0;entryY=0.5;entryDx=0;entryDy=0;" edge="1" parent="1" source="TTsi2ahICnWk6I_0Sprz-13" target="TTsi2ahICnWk6I_0Sprz-15">
          <mxGeometry relative="1" as="geometry" />
        </mxCell>
        <mxCell id="TTsi2ahICnWk6I_0Sprz-13" value="Definicion de API REST" style="ellipse;whiteSpace=wrap;html=1;aspect=fixed;" vertex="1" parent="1">
          <mxGeometry x="1520" y="560" width="80" height="80" as="geometry" />
        </mxCell>
        <mxCell id="iGiBMfjuA98sMZuKzQdS-15" style="edgeStyle=orthogonalEdgeStyle;rounded=0;orthogonalLoop=1;jettySize=auto;html=1;exitX=1;exitY=0.5;exitDx=0;exitDy=0;" edge="1" parent="1" source="TTsi2ahICnWk6I_0Sprz-14" target="TTsi2ahICnWk6I_0Sprz-16">
          <mxGeometry relative="1" as="geometry" />
        </mxCell>
        <mxCell id="TTsi2ahICnWk6I_0Sprz-14" value="Diseño de seguridad y autenticacion" style="ellipse;whiteSpace=wrap;html=1;aspect=fixed;" vertex="1" parent="1">
          <mxGeometry x="1720" y="160" width="80" height="80" as="geometry" />
        </mxCell>
        <mxCell id="iGiBMfjuA98sMZuKzQdS-16" style="edgeStyle=orthogonalEdgeStyle;rounded=0;orthogonalLoop=1;jettySize=auto;html=1;exitX=1;exitY=0.5;exitDx=0;exitDy=0;" edge="1" parent="1" source="TTsi2ahICnWk6I_0Sprz-15" target="TTsi2ahICnWk6I_0Sprz-17">
          <mxGeometry relative="1" as="geometry" />
        </mxCell>
        <mxCell id="TTsi2ahICnWk6I_0Sprz-15" value="Configuracion del entorno de desarrollo" style="ellipse;whiteSpace=wrap;html=1;aspect=fixed;" vertex="1" parent="1">
          <mxGeometry x="1720" y="560" width="80" height="80" as="geometry" />
        </mxCell>
        <mxCell id="iGiBMfjuA98sMZuKzQdS-17" style="edgeStyle=orthogonalEdgeStyle;rounded=0;orthogonalLoop=1;jettySize=auto;html=1;exitX=1;exitY=0.5;exitDx=0;exitDy=0;entryX=0;entryY=0.5;entryDx=0;entryDy=0;" edge="1" parent="1" source="TTsi2ahICnWk6I_0Sprz-16" target="TTsi2ahICnWk6I_0Sprz-18">
          <mxGeometry relative="1" as="geometry" />
        </mxCell>
        <mxCell id="TTsi2ahICnWk6I_0Sprz-16" value="Implementacion de API: usuarios y roles" style="ellipse;whiteSpace=wrap;html=1;aspect=fixed;" vertex="1" parent="1">
          <mxGeometry x="1920" y="160" width="80" height="80" as="geometry" />
        </mxCell>
        <mxCell id="iGiBMfjuA98sMZuKzQdS-18" style="edgeStyle=orthogonalEdgeStyle;rounded=0;orthogonalLoop=1;jettySize=auto;html=1;exitX=1;exitY=0.5;exitDx=0;exitDy=0;" edge="1" parent="1" source="TTsi2ahICnWk6I_0Sprz-17" target="TTsi2ahICnWk6I_0Sprz-19">
          <mxGeometry relative="1" as="geometry" />
        </mxCell>
        <mxCell id="TTsi2ahICnWk6I_0Sprz-17" value="Implementacion API: tickets y pagos" style="ellipse;whiteSpace=wrap;html=1;aspect=fixed;" vertex="1" parent="1">
          <mxGeometry x="1920" y="560" width="80" height="80" as="geometry" />
        </mxCell>
        <mxCell id="iGiBMfjuA98sMZuKzQdS-19" style="edgeStyle=orthogonalEdgeStyle;rounded=0;orthogonalLoop=1;jettySize=auto;html=1;exitX=1;exitY=0.5;exitDx=0;exitDy=0;" edge="1" parent="1" source="TTsi2ahICnWk6I_0Sprz-18" target="TTsi2ahICnWk6I_0Sprz-20">
          <mxGeometry relative="1" as="geometry" />
        </mxCell>
        <mxCell id="TTsi2ahICnWk6I_0Sprz-18" value="Implementacion: Control de accesos" style="ellipse;whiteSpace=wrap;html=1;aspect=fixed;" vertex="1" parent="1">
          <mxGeometry x="2120" y="160" width="80" height="80" as="geometry" />
        </mxCell>
        <mxCell id="iGiBMfjuA98sMZuKzQdS-20" style="edgeStyle=orthogonalEdgeStyle;rounded=0;orthogonalLoop=1;jettySize=auto;html=1;exitX=1;exitY=0.5;exitDx=0;exitDy=0;entryX=0;entryY=0.5;entryDx=0;entryDy=0;" edge="1" parent="1" source="TTsi2ahICnWk6I_0Sprz-19" target="TTsi2ahICnWk6I_0Sprz-21">
          <mxGeometry relative="1" as="geometry" />
        </mxCell>
        <mxCell id="TTsi2ahICnWk6I_0Sprz-19" value="Implementacion de API: gestion de eventos" style="ellipse;whiteSpace=wrap;html=1;aspect=fixed;" vertex="1" parent="1">
          <mxGeometry x="2120" y="560" width="80" height="80" as="geometry" />
        </mxCell>
        <mxCell id="iGiBMfjuA98sMZuKzQdS-21" style="edgeStyle=orthogonalEdgeStyle;rounded=0;orthogonalLoop=1;jettySize=auto;html=1;exitX=1;exitY=0.5;exitDx=0;exitDy=0;entryX=0;entryY=0.5;entryDx=0;entryDy=0;" edge="1" parent="1" source="TTsi2ahICnWk6I_0Sprz-20" target="TTsi2ahICnWk6I_0Sprz-22">
          <mxGeometry relative="1" as="geometry" />
        </mxCell>
        <mxCell id="TTsi2ahICnWk6I_0Sprz-20" value="Validaciones de negocios" style="ellipse;whiteSpace=wrap;html=1;aspect=fixed;" vertex="1" parent="1">
          <mxGeometry x="2320" y="160" width="80" height="80" as="geometry" />
        </mxCell>
        <mxCell id="iGiBMfjuA98sMZuKzQdS-22" style="edgeStyle=orthogonalEdgeStyle;rounded=0;orthogonalLoop=1;jettySize=auto;html=1;exitX=1;exitY=0.5;exitDx=0;exitDy=0;" edge="1" parent="1" source="TTsi2ahICnWk6I_0Sprz-21" target="TTsi2ahICnWk6I_0Sprz-23">
          <mxGeometry relative="1" as="geometry" />
        </mxCell>
        <mxCell id="TTsi2ahICnWk6I_0Sprz-21" value="Pruebas unitarias" style="ellipse;whiteSpace=wrap;html=1;aspect=fixed;" vertex="1" parent="1">
          <mxGeometry x="2320" y="560" width="80" height="80" as="geometry" />
        </mxCell>
        <mxCell id="iGiBMfjuA98sMZuKzQdS-23" style="edgeStyle=orthogonalEdgeStyle;rounded=0;orthogonalLoop=1;jettySize=auto;html=1;exitX=1;exitY=0.5;exitDx=0;exitDy=0;" edge="1" parent="1" source="TTsi2ahICnWk6I_0Sprz-22" target="TTsi2ahICnWk6I_0Sprz-24">
          <mxGeometry relative="1" as="geometry" />
        </mxCell>
        <mxCell id="TTsi2ahICnWk6I_0Sprz-22" value="Configuracion del entorno frontend" style="ellipse;whiteSpace=wrap;html=1;aspect=fixed;" vertex="1" parent="1">
          <mxGeometry x="2520" y="160" width="80" height="80" as="geometry" />
        </mxCell>
        <mxCell id="iGiBMfjuA98sMZuKzQdS-24" style="edgeStyle=orthogonalEdgeStyle;rounded=0;orthogonalLoop=1;jettySize=auto;html=1;exitX=1;exitY=0.5;exitDx=0;exitDy=0;entryX=0;entryY=0.5;entryDx=0;entryDy=0;" edge="1" parent="1" source="TTsi2ahICnWk6I_0Sprz-23" target="TTsi2ahICnWk6I_0Sprz-25">
          <mxGeometry relative="1" as="geometry" />
        </mxCell>
        <mxCell id="TTsi2ahICnWk6I_0Sprz-23" value="Portal de  asistentes: agenda y compra" style="ellipse;whiteSpace=wrap;html=1;aspect=fixed;" vertex="1" parent="1">
          <mxGeometry x="2520" y="560" width="80" height="80" as="geometry" />
        </mxCell>
        <mxCell id="iGiBMfjuA98sMZuKzQdS-25" style="edgeStyle=orthogonalEdgeStyle;rounded=0;orthogonalLoop=1;jettySize=auto;html=1;exitX=1;exitY=0.5;exitDx=0;exitDy=0;entryX=0;entryY=0.5;entryDx=0;entryDy=0;" edge="1" parent="1" source="TTsi2ahICnWk6I_0Sprz-24" target="TTsi2ahICnWk6I_0Sprz-28">
          <mxGeometry relative="1" as="geometry" />
        </mxCell>
        <mxCell id="TTsi2ahICnWk6I_0Sprz-24" value="Portal de asistentes: vizualizacion de QR" style="ellipse;whiteSpace=wrap;html=1;aspect=fixed;" vertex="1" parent="1">
          <mxGeometry x="2720" y="160" width="80" height="80" as="geometry" />
        </mxCell>
        <mxCell id="TTsi2ahICnWk6I_0Sprz-25" value="Panel de ADministrador: gestion de eventos/Tickets" style="ellipse;whiteSpace=wrap;html=1;aspect=fixed;" vertex="1" parent="1">
          <mxGeometry x="2720" y="560" width="80" height="80" as="geometry" />
        </mxCell>
        <mxCell id="iGiBMfjuA98sMZuKzQdS-27" style="edgeStyle=orthogonalEdgeStyle;rounded=0;orthogonalLoop=1;jettySize=auto;html=1;exitX=1;exitY=0.5;exitDx=0;exitDy=0;entryX=0;entryY=0.5;entryDx=0;entryDy=0;" edge="1" parent="1" source="TTsi2ahICnWk6I_0Sprz-28" target="TTsi2ahICnWk6I_0Sprz-30">
          <mxGeometry relative="1" as="geometry" />
        </mxCell>
        <mxCell id="TTsi2ahICnWk6I_0Sprz-28" value="Panel de Administrador : reportes de ventas/acceso" style="ellipse;whiteSpace=wrap;html=1;aspect=fixed;" vertex="1" parent="1">
          <mxGeometry x="2920" y="160" width="80" height="80" as="geometry" />
        </mxCell>
        <mxCell id="iGiBMfjuA98sMZuKzQdS-28" style="edgeStyle=orthogonalEdgeStyle;rounded=0;orthogonalLoop=1;jettySize=auto;html=1;exitX=1;exitY=0.5;exitDx=0;exitDy=0;entryX=0;entryY=0.5;entryDx=0;entryDy=0;" edge="1" parent="1" source="TTsi2ahICnWk6I_0Sprz-29" target="TTsi2ahICnWk6I_0Sprz-31">
          <mxGeometry relative="1" as="geometry" />
        </mxCell>
        <mxCell id="TTsi2ahICnWk6I_0Sprz-29" value="Gestion de roles y permisos" style="ellipse;whiteSpace=wrap;html=1;aspect=fixed;" vertex="1" parent="1">
          <mxGeometry x="2920" y="560" width="80" height="80" as="geometry" />
        </mxCell>
        <mxCell id="iGiBMfjuA98sMZuKzQdS-29" style="edgeStyle=orthogonalEdgeStyle;rounded=0;orthogonalLoop=1;jettySize=auto;html=1;exitX=1;exitY=0.5;exitDx=0;exitDy=0;" edge="1" parent="1" source="TTsi2ahICnWk6I_0Sprz-30" target="TTsi2ahICnWk6I_0Sprz-32">
          <mxGeometry relative="1" as="geometry" />
        </mxCell>
        <mxCell id="TTsi2ahICnWk6I_0Sprz-30" value="Navegacion protegida con react-router- dom" style="ellipse;whiteSpace=wrap;html=1;aspect=fixed;" vertex="1" parent="1">
          <mxGeometry x="3120" y="160" width="80" height="80" as="geometry" />
        </mxCell>
        <mxCell id="iGiBMfjuA98sMZuKzQdS-30" style="edgeStyle=orthogonalEdgeStyle;rounded=0;orthogonalLoop=1;jettySize=auto;html=1;exitX=1;exitY=0.5;exitDx=0;exitDy=0;entryX=0;entryY=0.5;entryDx=0;entryDy=0;" edge="1" parent="1" source="TTsi2ahICnWk6I_0Sprz-31" target="TTsi2ahICnWk6I_0Sprz-33">
          <mxGeometry relative="1" as="geometry" />
        </mxCell>
        <mxCell id="TTsi2ahICnWk6I_0Sprz-31" value="Estado global con redux /contex API" style="ellipse;whiteSpace=wrap;html=1;aspect=fixed;" vertex="1" parent="1">
          <mxGeometry x="3120" y="560" width="80" height="80" as="geometry" />
        </mxCell>
        <mxCell id="iGiBMfjuA98sMZuKzQdS-31" style="edgeStyle=orthogonalEdgeStyle;rounded=0;orthogonalLoop=1;jettySize=auto;html=1;exitX=1;exitY=0.5;exitDx=0;exitDy=0;" edge="1" parent="1" source="TTsi2ahICnWk6I_0Sprz-32" target="TTsi2ahICnWk6I_0Sprz-34">
          <mxGeometry relative="1" as="geometry" />
        </mxCell>
        <mxCell id="TTsi2ahICnWk6I_0Sprz-32" value="Creacion de tablas y relaciones" style="ellipse;whiteSpace=wrap;html=1;aspect=fixed;" vertex="1" parent="1">
          <mxGeometry x="3320" y="160" width="80" height="80" as="geometry" />
        </mxCell>
        <mxCell id="iGiBMfjuA98sMZuKzQdS-32" style="edgeStyle=orthogonalEdgeStyle;rounded=0;orthogonalLoop=1;jettySize=auto;html=1;exitX=1;exitY=0.5;exitDx=0;exitDy=0;entryX=0;entryY=0.5;entryDx=0;entryDy=0;" edge="1" parent="1" source="TTsi2ahICnWk6I_0Sprz-33" target="TTsi2ahICnWk6I_0Sprz-35">
          <mxGeometry relative="1" as="geometry" />
        </mxCell>
        <mxCell id="TTsi2ahICnWk6I_0Sprz-33" value="Implementacion de Stored procedures" style="ellipse;whiteSpace=wrap;html=1;aspect=fixed;" vertex="1" parent="1">
          <mxGeometry x="3320" y="560" width="80" height="80" as="geometry" />
        </mxCell>
        <mxCell id="iGiBMfjuA98sMZuKzQdS-33" style="edgeStyle=orthogonalEdgeStyle;rounded=0;orthogonalLoop=1;jettySize=auto;html=1;exitX=1;exitY=0.5;exitDx=0;exitDy=0;entryX=0;entryY=0.5;entryDx=0;entryDy=0;" edge="1" parent="1" source="TTsi2ahICnWk6I_0Sprz-34" target="TTsi2ahICnWk6I_0Sprz-36">
          <mxGeometry relative="1" as="geometry" />
        </mxCell>
        <mxCell id="TTsi2ahICnWk6I_0Sprz-34" value="Implementacion triggers" style="ellipse;whiteSpace=wrap;html=1;aspect=fixed;" vertex="1" parent="1">
          <mxGeometry x="3520" y="160" width="80" height="80" as="geometry" />
        </mxCell>
        <mxCell id="iGiBMfjuA98sMZuKzQdS-34" style="edgeStyle=orthogonalEdgeStyle;rounded=0;orthogonalLoop=1;jettySize=auto;html=1;exitX=1;exitY=0.5;exitDx=0;exitDy=0;entryX=0;entryY=0.5;entryDx=0;entryDy=0;" edge="1" parent="1" source="TTsi2ahICnWk6I_0Sprz-35" target="TTsi2ahICnWk6I_0Sprz-37">
          <mxGeometry relative="1" as="geometry" />
        </mxCell>
        <mxCell id="TTsi2ahICnWk6I_0Sprz-35" value="Configuracion de seguridad  y accesos" style="ellipse;whiteSpace=wrap;html=1;aspect=fixed;" vertex="1" parent="1">
          <mxGeometry x="3520" y="560" width="80" height="80" as="geometry" />
        </mxCell>
        <mxCell id="iGiBMfjuA98sMZuKzQdS-35" style="edgeStyle=orthogonalEdgeStyle;rounded=0;orthogonalLoop=1;jettySize=auto;html=1;exitX=1;exitY=0.5;exitDx=0;exitDy=0;" edge="1" parent="1" source="TTsi2ahICnWk6I_0Sprz-36" target="TTsi2ahICnWk6I_0Sprz-38">
          <mxGeometry relative="1" as="geometry" />
        </mxCell>
        <mxCell id="TTsi2ahICnWk6I_0Sprz-36" value="Pruebas de intregridad de datos" style="ellipse;whiteSpace=wrap;html=1;aspect=fixed;" vertex="1" parent="1">
          <mxGeometry x="3722" y="160" width="80" height="80" as="geometry" />
        </mxCell>
        <mxCell id="iGiBMfjuA98sMZuKzQdS-36" style="edgeStyle=orthogonalEdgeStyle;rounded=0;orthogonalLoop=1;jettySize=auto;html=1;exitX=1;exitY=0.5;exitDx=0;exitDy=0;entryX=0;entryY=0.5;entryDx=0;entryDy=0;" edge="1" parent="1" source="TTsi2ahICnWk6I_0Sprz-37" target="TTsi2ahICnWk6I_0Sprz-39">
          <mxGeometry relative="1" as="geometry" />
        </mxCell>
        <mxCell id="TTsi2ahICnWk6I_0Sprz-37" value="Integracion Frontend_ bakend" style="ellipse;whiteSpace=wrap;html=1;aspect=fixed;" vertex="1" parent="1">
          <mxGeometry x="3722" y="560" width="80" height="80" as="geometry" />
        </mxCell>
        <mxCell id="iGiBMfjuA98sMZuKzQdS-37" style="edgeStyle=orthogonalEdgeStyle;rounded=0;orthogonalLoop=1;jettySize=auto;html=1;exitX=1;exitY=0.5;exitDx=0;exitDy=0;entryX=0;entryY=0.5;entryDx=0;entryDy=0;" edge="1" parent="1" source="TTsi2ahICnWk6I_0Sprz-38" target="TTsi2ahICnWk6I_0Sprz-40">
          <mxGeometry relative="1" as="geometry" />
        </mxCell>
        <mxCell id="TTsi2ahICnWk6I_0Sprz-38" value="Integracion bakend_base de datos" style="ellipse;whiteSpace=wrap;html=1;aspect=fixed;" vertex="1" parent="1">
          <mxGeometry x="3920" y="160" width="80" height="80" as="geometry" />
        </mxCell>
        <mxCell id="iGiBMfjuA98sMZuKzQdS-38" style="edgeStyle=orthogonalEdgeStyle;rounded=0;orthogonalLoop=1;jettySize=auto;html=1;exitX=1;exitY=0.5;exitDx=0;exitDy=0;entryX=0;entryY=0.5;entryDx=0;entryDy=0;" edge="1" parent="1" source="TTsi2ahICnWk6I_0Sprz-39" target="TTsi2ahICnWk6I_0Sprz-41">
          <mxGeometry relative="1" as="geometry" />
        </mxCell>
        <mxCell id="TTsi2ahICnWk6I_0Sprz-39" value="Pruebas de sistema" style="ellipse;whiteSpace=wrap;html=1;aspect=fixed;" vertex="1" parent="1">
          <mxGeometry x="3920" y="560" width="80" height="80" as="geometry" />
        </mxCell>
        <mxCell id="iGiBMfjuA98sMZuKzQdS-39" style="edgeStyle=orthogonalEdgeStyle;rounded=0;orthogonalLoop=1;jettySize=auto;html=1;exitX=1;exitY=0.5;exitDx=0;exitDy=0;" edge="1" parent="1" source="TTsi2ahICnWk6I_0Sprz-40" target="TTsi2ahICnWk6I_0Sprz-42">
          <mxGeometry relative="1" as="geometry" />
        </mxCell>
        <mxCell id="TTsi2ahICnWk6I_0Sprz-40" value="Pruebas de usabilidad y accesibilidad" style="ellipse;whiteSpace=wrap;html=1;aspect=fixed;" vertex="1" parent="1">
          <mxGeometry x="4120" y="160" width="80" height="80" as="geometry" />
        </mxCell>
        <mxCell id="iGiBMfjuA98sMZuKzQdS-40" style="edgeStyle=orthogonalEdgeStyle;rounded=0;orthogonalLoop=1;jettySize=auto;html=1;exitX=1;exitY=0.5;exitDx=0;exitDy=0;entryX=0;entryY=0.5;entryDx=0;entryDy=0;" edge="1" parent="1" source="TTsi2ahICnWk6I_0Sprz-41" target="TTsi2ahICnWk6I_0Sprz-43">
          <mxGeometry relative="1" as="geometry" />
        </mxCell>
        <mxCell id="TTsi2ahICnWk6I_0Sprz-41" value="Documentacion final y capacitacion" style="ellipse;whiteSpace=wrap;html=1;aspect=fixed;" vertex="1" parent="1">
          <mxGeometry x="4120" y="560" width="80" height="80" as="geometry" />
        </mxCell>
        <mxCell id="iGiBMfjuA98sMZuKzQdS-41" style="edgeStyle=orthogonalEdgeStyle;rounded=0;orthogonalLoop=1;jettySize=auto;html=1;exitX=1;exitY=0.5;exitDx=0;exitDy=0;entryX=0.5;entryY=0;entryDx=0;entryDy=0;" edge="1" parent="1" source="TTsi2ahICnWk6I_0Sprz-42" target="TTsi2ahICnWk6I_0Sprz-44">
          <mxGeometry relative="1" as="geometry" />
        </mxCell>
        <mxCell id="TTsi2ahICnWk6I_0Sprz-42" value="Despliegue en servicio web" style="ellipse;whiteSpace=wrap;html=1;aspect=fixed;" vertex="1" parent="1">
          <mxGeometry x="4320" y="160" width="80" height="80" as="geometry" />
        </mxCell>
        <mxCell id="iGiBMfjuA98sMZuKzQdS-42" style="edgeStyle=orthogonalEdgeStyle;rounded=0;orthogonalLoop=1;jettySize=auto;html=1;exitX=1;exitY=0.5;exitDx=0;exitDy=0;entryX=0.5;entryY=1;entryDx=0;entryDy=0;" edge="1" parent="1" source="TTsi2ahICnWk6I_0Sprz-43" target="TTsi2ahICnWk6I_0Sprz-44">
          <mxGeometry relative="1" as="geometry" />
        </mxCell>
        <mxCell id="TTsi2ahICnWk6I_0Sprz-43" value="Presentacio del Sistema" style="ellipse;whiteSpace=wrap;html=1;aspect=fixed;" vertex="1" parent="1">
          <mxGeometry x="4320" y="560" width="80" height="80" as="geometry" />
        </mxCell>
        <mxCell id="TTsi2ahICnWk6I_0Sprz-44" value="FIn" style="ellipse;whiteSpace=wrap;html=1;aspect=fixed;" vertex="1" parent="1">
          <mxGeometry x="4560" y="360" width="80" height="80" as="geometry" />
        </mxCell>
        <mxCell id="TTsi2ahICnWk6I_0Sprz-47" value="" style="endArrow=none;html=1;rounded=0;" edge="1" parent="1">
          <mxGeometry width="50" height="50" relative="1" as="geometry">
            <mxPoint x="400" y="560" as="sourcePoint" />
            <mxPoint x="400" y="480" as="targetPoint" />
          </mxGeometry>
        </mxCell>
        <mxCell id="TTsi2ahICnWk6I_0Sprz-49" value="" style="endArrow=none;html=1;rounded=0;" edge="1" parent="1">
          <mxGeometry width="50" height="50" relative="1" as="geometry">
            <mxPoint x="360" y="520" as="sourcePoint" />
            <mxPoint x="440" y="520" as="targetPoint" />
          </mxGeometry>
        </mxCell>
        <mxCell id="TTsi2ahICnWk6I_0Sprz-50" value="0" style="text;html=1;align=center;verticalAlign=middle;resizable=0;points=[];autosize=1;strokeColor=none;fillColor=none;" vertex="1" parent="1">
          <mxGeometry x="365" y="488" width="30" height="30" as="geometry" />
        </mxCell>
        <mxCell id="TTsi2ahICnWk6I_0Sprz-53" value="0" style="text;html=1;align=center;verticalAlign=middle;resizable=0;points=[];autosize=1;strokeColor=none;fillColor=none;" vertex="1" parent="1">
          <mxGeometry x="405" y="488" width="30" height="30" as="geometry" />
        </mxCell>
        <mxCell id="TTsi2ahICnWk6I_0Sprz-54" value="0" style="text;html=1;align=center;verticalAlign=middle;resizable=0;points=[];autosize=1;strokeColor=none;fillColor=none;" vertex="1" parent="1">
          <mxGeometry x="365" y="522" width="30" height="30" as="geometry" />
        </mxCell>
        <mxCell id="TTsi2ahICnWk6I_0Sprz-55" value="0" style="text;html=1;align=center;verticalAlign=middle;resizable=0;points=[];autosize=1;strokeColor=none;fillColor=none;" vertex="1" parent="1">
          <mxGeometry x="405" y="521" width="30" height="30" as="geometry" />
        </mxCell>
        <mxCell id="TTsi2ahICnWk6I_0Sprz-56" value="" style="endArrow=none;html=1;rounded=0;" edge="1" parent="1">
          <mxGeometry width="50" height="50" relative="1" as="geometry">
            <mxPoint x="560" y="323" as="sourcePoint" />
            <mxPoint x="560" y="243" as="targetPoint" />
          </mxGeometry>
        </mxCell>
        <mxCell id="TTsi2ahICnWk6I_0Sprz-57" value="" style="endArrow=none;html=1;rounded=0;" edge="1" parent="1">
          <mxGeometry width="50" height="50" relative="1" as="geometry">
            <mxPoint x="520" y="283" as="sourcePoint" />
            <mxPoint x="600" y="283" as="targetPoint" />
          </mxGeometry>
        </mxCell>
        <mxCell id="TTsi2ahICnWk6I_0Sprz-58" value="0" style="text;html=1;align=center;verticalAlign=middle;resizable=0;points=[];autosize=1;strokeColor=none;fillColor=none;" vertex="1" parent="1">
          <mxGeometry x="525" y="251" width="30" height="30" as="geometry" />
        </mxCell>
        <mxCell id="TTsi2ahICnWk6I_0Sprz-59" value="1" style="text;html=1;align=center;verticalAlign=middle;resizable=0;points=[];autosize=1;strokeColor=none;fillColor=none;" vertex="1" parent="1">
          <mxGeometry x="565" y="251" width="30" height="30" as="geometry" />
        </mxCell>
        <mxCell id="TTsi2ahICnWk6I_0Sprz-60" value="0" style="text;html=1;align=center;verticalAlign=middle;resizable=0;points=[];autosize=1;strokeColor=none;fillColor=none;" vertex="1" parent="1">
          <mxGeometry x="525" y="285" width="30" height="30" as="geometry" />
        </mxCell>
        <mxCell id="TTsi2ahICnWk6I_0Sprz-61" value="1" style="text;html=1;align=center;verticalAlign=middle;resizable=0;points=[];autosize=1;strokeColor=none;fillColor=none;" vertex="1" parent="1">
          <mxGeometry x="565" y="284" width="30" height="30" as="geometry" />
        </mxCell>
        <mxCell id="TTsi2ahICnWk6I_0Sprz-62" value="" style="endArrow=none;html=1;rounded=0;" edge="1" parent="1">
          <mxGeometry width="50" height="50" relative="1" as="geometry">
            <mxPoint x="559" y="723" as="sourcePoint" />
            <mxPoint x="559" y="643" as="targetPoint" />
          </mxGeometry>
        </mxCell>
        <mxCell id="TTsi2ahICnWk6I_0Sprz-63" value="" style="endArrow=none;html=1;rounded=0;" edge="1" parent="1">
          <mxGeometry width="50" height="50" relative="1" as="geometry">
            <mxPoint x="519" y="683" as="sourcePoint" />
            <mxPoint x="599" y="683" as="targetPoint" />
          </mxGeometry>
        </mxCell>
        <mxCell id="TTsi2ahICnWk6I_0Sprz-64" value="0" style="text;html=1;align=center;verticalAlign=middle;resizable=0;points=[];autosize=1;strokeColor=none;fillColor=none;" vertex="1" parent="1">
          <mxGeometry x="524" y="651" width="30" height="30" as="geometry" />
        </mxCell>
        <mxCell id="TTsi2ahICnWk6I_0Sprz-65" value="2" style="text;html=1;align=center;verticalAlign=middle;resizable=0;points=[];autosize=1;strokeColor=none;fillColor=none;" vertex="1" parent="1">
          <mxGeometry x="564" y="651" width="30" height="30" as="geometry" />
        </mxCell>
        <mxCell id="TTsi2ahICnWk6I_0Sprz-66" value="0" style="text;html=1;align=center;verticalAlign=middle;resizable=0;points=[];autosize=1;strokeColor=none;fillColor=none;" vertex="1" parent="1">
          <mxGeometry x="524" y="685" width="30" height="30" as="geometry" />
        </mxCell>
        <mxCell id="TTsi2ahICnWk6I_0Sprz-67" value="2" style="text;html=1;align=center;verticalAlign=middle;resizable=0;points=[];autosize=1;strokeColor=none;fillColor=none;" vertex="1" parent="1">
          <mxGeometry x="564" y="684" width="30" height="30" as="geometry" />
        </mxCell>
        <mxCell id="TTsi2ahICnWk6I_0Sprz-68" value="" style="endArrow=none;html=1;rounded=0;" edge="1" parent="1">
          <mxGeometry width="50" height="50" relative="1" as="geometry">
            <mxPoint x="760" y="322" as="sourcePoint" />
            <mxPoint x="760" y="242" as="targetPoint" />
          </mxGeometry>
        </mxCell>
        <mxCell id="TTsi2ahICnWk6I_0Sprz-69" value="" style="endArrow=none;html=1;rounded=0;" edge="1" parent="1">
          <mxGeometry width="50" height="50" relative="1" as="geometry">
            <mxPoint x="720" y="282" as="sourcePoint" />
            <mxPoint x="800" y="282" as="targetPoint" />
          </mxGeometry>
        </mxCell>
        <mxCell id="TTsi2ahICnWk6I_0Sprz-70" value="1" style="text;html=1;align=center;verticalAlign=middle;resizable=0;points=[];autosize=1;strokeColor=none;fillColor=none;" vertex="1" parent="1">
          <mxGeometry x="725" y="250" width="30" height="30" as="geometry" />
        </mxCell>
        <mxCell id="TTsi2ahICnWk6I_0Sprz-71" value="3" style="text;html=1;align=center;verticalAlign=middle;resizable=0;points=[];autosize=1;strokeColor=none;fillColor=none;" vertex="1" parent="1">
          <mxGeometry x="765" y="250" width="30" height="30" as="geometry" />
        </mxCell>
        <mxCell id="TTsi2ahICnWk6I_0Sprz-72" value="1" style="text;html=1;align=center;verticalAlign=middle;resizable=0;points=[];autosize=1;strokeColor=none;fillColor=none;" vertex="1" parent="1">
          <mxGeometry x="725" y="284" width="30" height="30" as="geometry" />
        </mxCell>
        <mxCell id="TTsi2ahICnWk6I_0Sprz-73" value="3" style="text;html=1;align=center;verticalAlign=middle;resizable=0;points=[];autosize=1;strokeColor=none;fillColor=none;" vertex="1" parent="1">
          <mxGeometry x="765" y="283" width="30" height="30" as="geometry" />
        </mxCell>
        <mxCell id="TTsi2ahICnWk6I_0Sprz-74" value="" style="endArrow=none;html=1;rounded=0;" edge="1" parent="1">
          <mxGeometry width="50" height="50" relative="1" as="geometry">
            <mxPoint x="760" y="722" as="sourcePoint" />
            <mxPoint x="760" y="642" as="targetPoint" />
          </mxGeometry>
        </mxCell>
        <mxCell id="TTsi2ahICnWk6I_0Sprz-75" value="" style="endArrow=none;html=1;rounded=0;" edge="1" parent="1">
          <mxGeometry width="50" height="50" relative="1" as="geometry">
            <mxPoint x="720" y="682" as="sourcePoint" />
            <mxPoint x="800" y="682" as="targetPoint" />
          </mxGeometry>
        </mxCell>
        <mxCell id="TTsi2ahICnWk6I_0Sprz-76" value="2" style="text;html=1;align=center;verticalAlign=middle;resizable=0;points=[];autosize=1;strokeColor=none;fillColor=none;" vertex="1" parent="1">
          <mxGeometry x="725" y="650" width="30" height="30" as="geometry" />
        </mxCell>
        <mxCell id="TTsi2ahICnWk6I_0Sprz-77" value="7" style="text;html=1;align=center;verticalAlign=middle;resizable=0;points=[];autosize=1;strokeColor=none;fillColor=none;" vertex="1" parent="1">
          <mxGeometry x="765" y="650" width="30" height="30" as="geometry" />
        </mxCell>
        <mxCell id="TTsi2ahICnWk6I_0Sprz-78" value="2" style="text;html=1;align=center;verticalAlign=middle;resizable=0;points=[];autosize=1;strokeColor=none;fillColor=none;" vertex="1" parent="1">
          <mxGeometry x="725" y="684" width="30" height="30" as="geometry" />
        </mxCell>
        <mxCell id="TTsi2ahICnWk6I_0Sprz-79" value="7" style="text;html=1;align=center;verticalAlign=middle;resizable=0;points=[];autosize=1;strokeColor=none;fillColor=none;" vertex="1" parent="1">
          <mxGeometry x="765" y="683" width="30" height="30" as="geometry" />
        </mxCell>
        <mxCell id="vR3RuELotrSQ5nbctyh_-1" value="" style="endArrow=none;html=1;rounded=0;" edge="1" parent="1">
          <mxGeometry width="50" height="50" relative="1" as="geometry">
            <mxPoint x="960" y="322" as="sourcePoint" />
            <mxPoint x="960" y="242" as="targetPoint" />
          </mxGeometry>
        </mxCell>
        <mxCell id="vR3RuELotrSQ5nbctyh_-2" value="" style="endArrow=none;html=1;rounded=0;" edge="1" parent="1">
          <mxGeometry width="50" height="50" relative="1" as="geometry">
            <mxPoint x="920" y="282" as="sourcePoint" />
            <mxPoint x="1000" y="282" as="targetPoint" />
          </mxGeometry>
        </mxCell>
        <mxCell id="vR3RuELotrSQ5nbctyh_-3" value="3" style="text;html=1;align=center;verticalAlign=middle;resizable=0;points=[];autosize=1;strokeColor=none;fillColor=none;" vertex="1" parent="1">
          <mxGeometry x="925" y="250" width="30" height="30" as="geometry" />
        </mxCell>
        <mxCell id="vR3RuELotrSQ5nbctyh_-4" value="5" style="text;html=1;align=center;verticalAlign=middle;resizable=0;points=[];autosize=1;strokeColor=none;fillColor=none;" vertex="1" parent="1">
          <mxGeometry x="965" y="250" width="30" height="30" as="geometry" />
        </mxCell>
        <mxCell id="vR3RuELotrSQ5nbctyh_-5" value="3" style="text;html=1;align=center;verticalAlign=middle;resizable=0;points=[];autosize=1;strokeColor=none;fillColor=none;" vertex="1" parent="1">
          <mxGeometry x="925" y="284" width="30" height="30" as="geometry" />
        </mxCell>
        <mxCell id="vR3RuELotrSQ5nbctyh_-6" value="5" style="text;html=1;align=center;verticalAlign=middle;resizable=0;points=[];autosize=1;strokeColor=none;fillColor=none;" vertex="1" parent="1">
          <mxGeometry x="965" y="283" width="30" height="30" as="geometry" />
        </mxCell>
        <mxCell id="vR3RuELotrSQ5nbctyh_-7" value="" style="endArrow=none;html=1;rounded=0;" edge="1" parent="1">
          <mxGeometry width="50" height="50" relative="1" as="geometry">
            <mxPoint x="960" y="722" as="sourcePoint" />
            <mxPoint x="960" y="642" as="targetPoint" />
          </mxGeometry>
        </mxCell>
        <mxCell id="vR3RuELotrSQ5nbctyh_-8" value="" style="endArrow=none;html=1;rounded=0;" edge="1" parent="1">
          <mxGeometry width="50" height="50" relative="1" as="geometry">
            <mxPoint x="920" y="682" as="sourcePoint" />
            <mxPoint x="1000" y="682" as="targetPoint" />
          </mxGeometry>
        </mxCell>
        <mxCell id="vR3RuELotrSQ5nbctyh_-9" value="7" style="text;html=1;align=center;verticalAlign=middle;resizable=0;points=[];autosize=1;strokeColor=none;fillColor=none;" vertex="1" parent="1">
          <mxGeometry x="925" y="650" width="30" height="30" as="geometry" />
        </mxCell>
        <mxCell id="vR3RuELotrSQ5nbctyh_-10" value="9" style="text;html=1;align=center;verticalAlign=middle;resizable=0;points=[];autosize=1;strokeColor=none;fillColor=none;" vertex="1" parent="1">
          <mxGeometry x="965" y="650" width="30" height="30" as="geometry" />
        </mxCell>
        <mxCell id="vR3RuELotrSQ5nbctyh_-11" value="7" style="text;html=1;align=center;verticalAlign=middle;resizable=0;points=[];autosize=1;strokeColor=none;fillColor=none;" vertex="1" parent="1">
          <mxGeometry x="925" y="684" width="30" height="30" as="geometry" />
        </mxCell>
        <mxCell id="vR3RuELotrSQ5nbctyh_-12" value="9" style="text;html=1;align=center;verticalAlign=middle;resizable=0;points=[];autosize=1;strokeColor=none;fillColor=none;" vertex="1" parent="1">
          <mxGeometry x="965" y="683" width="30" height="30" as="geometry" />
        </mxCell>
        <mxCell id="vR3RuELotrSQ5nbctyh_-13" value="" style="endArrow=none;html=1;rounded=0;" edge="1" parent="1">
          <mxGeometry width="50" height="50" relative="1" as="geometry">
            <mxPoint x="1160" y="722" as="sourcePoint" />
            <mxPoint x="1160" y="642" as="targetPoint" />
          </mxGeometry>
        </mxCell>
        <mxCell id="vR3RuELotrSQ5nbctyh_-14" value="" style="endArrow=none;html=1;rounded=0;" edge="1" parent="1">
          <mxGeometry width="50" height="50" relative="1" as="geometry">
            <mxPoint x="1120" y="682" as="sourcePoint" />
            <mxPoint x="1200" y="682" as="targetPoint" />
          </mxGeometry>
        </mxCell>
        <mxCell id="vR3RuELotrSQ5nbctyh_-15" value="9" style="text;html=1;align=center;verticalAlign=middle;resizable=0;points=[];autosize=1;strokeColor=none;fillColor=none;" vertex="1" parent="1">
          <mxGeometry x="1125" y="650" width="30" height="30" as="geometry" />
        </mxCell>
        <mxCell id="vR3RuELotrSQ5nbctyh_-16" value="11" style="text;html=1;align=center;verticalAlign=middle;resizable=0;points=[];autosize=1;strokeColor=none;fillColor=none;" vertex="1" parent="1">
          <mxGeometry x="1160" y="650" width="40" height="30" as="geometry" />
        </mxCell>
        <mxCell id="vR3RuELotrSQ5nbctyh_-17" value="9" style="text;html=1;align=center;verticalAlign=middle;resizable=0;points=[];autosize=1;strokeColor=none;fillColor=none;" vertex="1" parent="1">
          <mxGeometry x="1125" y="684" width="30" height="30" as="geometry" />
        </mxCell>
        <mxCell id="vR3RuELotrSQ5nbctyh_-18" value="11" style="text;html=1;align=center;verticalAlign=middle;resizable=0;points=[];autosize=1;strokeColor=none;fillColor=none;" vertex="1" parent="1">
          <mxGeometry x="1160" y="683" width="40" height="30" as="geometry" />
        </mxCell>
        <mxCell id="vR3RuELotrSQ5nbctyh_-19" value="" style="endArrow=none;html=1;rounded=0;" edge="1" parent="1">
          <mxGeometry width="50" height="50" relative="1" as="geometry">
            <mxPoint x="1360" y="722" as="sourcePoint" />
            <mxPoint x="1360" y="642" as="targetPoint" />
          </mxGeometry>
        </mxCell>
        <mxCell id="vR3RuELotrSQ5nbctyh_-20" value="" style="endArrow=none;html=1;rounded=0;" edge="1" parent="1">
          <mxGeometry width="50" height="50" relative="1" as="geometry">
            <mxPoint x="1320" y="682" as="sourcePoint" />
            <mxPoint x="1400" y="682" as="targetPoint" />
          </mxGeometry>
        </mxCell>
        <mxCell id="vR3RuELotrSQ5nbctyh_-21" value="11" style="text;html=1;align=center;verticalAlign=middle;resizable=0;points=[];autosize=1;strokeColor=none;fillColor=none;" vertex="1" parent="1">
          <mxGeometry x="1320" y="650" width="40" height="30" as="geometry" />
        </mxCell>
        <mxCell id="vR3RuELotrSQ5nbctyh_-22" value="16" style="text;html=1;align=center;verticalAlign=middle;resizable=0;points=[];autosize=1;strokeColor=none;fillColor=none;" vertex="1" parent="1">
          <mxGeometry x="1360" y="650" width="40" height="30" as="geometry" />
        </mxCell>
        <mxCell id="vR3RuELotrSQ5nbctyh_-23" value="11" style="text;html=1;align=center;verticalAlign=middle;resizable=0;points=[];autosize=1;strokeColor=none;fillColor=none;" vertex="1" parent="1">
          <mxGeometry x="1320" y="684" width="40" height="30" as="geometry" />
        </mxCell>
        <mxCell id="vR3RuELotrSQ5nbctyh_-24" value="16" style="text;html=1;align=center;verticalAlign=middle;resizable=0;points=[];autosize=1;strokeColor=none;fillColor=none;" vertex="1" parent="1">
          <mxGeometry x="1360" y="683" width="40" height="30" as="geometry" />
        </mxCell>
        <mxCell id="vR3RuELotrSQ5nbctyh_-25" value="" style="endArrow=none;html=1;rounded=0;" edge="1" parent="1">
          <mxGeometry width="50" height="50" relative="1" as="geometry">
            <mxPoint x="1560" y="722" as="sourcePoint" />
            <mxPoint x="1560" y="642" as="targetPoint" />
          </mxGeometry>
        </mxCell>
        <mxCell id="vR3RuELotrSQ5nbctyh_-26" value="" style="endArrow=none;html=1;rounded=0;" edge="1" parent="1">
          <mxGeometry width="50" height="50" relative="1" as="geometry">
            <mxPoint x="1520" y="682" as="sourcePoint" />
            <mxPoint x="1600" y="682" as="targetPoint" />
          </mxGeometry>
        </mxCell>
        <mxCell id="vR3RuELotrSQ5nbctyh_-27" value="16" style="text;html=1;align=center;verticalAlign=middle;resizable=0;points=[];autosize=1;strokeColor=none;fillColor=none;" vertex="1" parent="1">
          <mxGeometry x="1520" y="650" width="40" height="30" as="geometry" />
        </mxCell>
        <mxCell id="vR3RuELotrSQ5nbctyh_-28" value="20" style="text;html=1;align=center;verticalAlign=middle;resizable=0;points=[];autosize=1;strokeColor=none;fillColor=none;" vertex="1" parent="1">
          <mxGeometry x="1560" y="650" width="40" height="30" as="geometry" />
        </mxCell>
        <mxCell id="vR3RuELotrSQ5nbctyh_-29" value="16" style="text;html=1;align=center;verticalAlign=middle;resizable=0;points=[];autosize=1;strokeColor=none;fillColor=none;" vertex="1" parent="1">
          <mxGeometry x="1520" y="684" width="40" height="30" as="geometry" />
        </mxCell>
        <mxCell id="vR3RuELotrSQ5nbctyh_-30" value="20" style="text;html=1;align=center;verticalAlign=middle;resizable=0;points=[];autosize=1;strokeColor=none;fillColor=none;" vertex="1" parent="1">
          <mxGeometry x="1560" y="683" width="40" height="30" as="geometry" />
        </mxCell>
        <mxCell id="vR3RuELotrSQ5nbctyh_-31" value="" style="endArrow=none;html=1;rounded=0;" edge="1" parent="1">
          <mxGeometry width="50" height="50" relative="1" as="geometry">
            <mxPoint x="1760" y="723" as="sourcePoint" />
            <mxPoint x="1760" y="643" as="targetPoint" />
          </mxGeometry>
        </mxCell>
        <mxCell id="vR3RuELotrSQ5nbctyh_-32" value="" style="endArrow=none;html=1;rounded=0;" edge="1" parent="1">
          <mxGeometry width="50" height="50" relative="1" as="geometry">
            <mxPoint x="1720" y="683" as="sourcePoint" />
            <mxPoint x="1800" y="683" as="targetPoint" />
          </mxGeometry>
        </mxCell>
        <mxCell id="vR3RuELotrSQ5nbctyh_-33" value="20" style="text;html=1;align=center;verticalAlign=middle;resizable=0;points=[];autosize=1;strokeColor=none;fillColor=none;" vertex="1" parent="1">
          <mxGeometry x="1720" y="651" width="40" height="30" as="geometry" />
        </mxCell>
        <mxCell id="vR3RuELotrSQ5nbctyh_-34" value="23" style="text;html=1;align=center;verticalAlign=middle;resizable=0;points=[];autosize=1;strokeColor=none;fillColor=none;" vertex="1" parent="1">
          <mxGeometry x="1760" y="651" width="40" height="30" as="geometry" />
        </mxCell>
        <mxCell id="vR3RuELotrSQ5nbctyh_-35" value="20" style="text;html=1;align=center;verticalAlign=middle;resizable=0;points=[];autosize=1;strokeColor=none;fillColor=none;" vertex="1" parent="1">
          <mxGeometry x="1720" y="685" width="40" height="30" as="geometry" />
        </mxCell>
        <mxCell id="vR3RuELotrSQ5nbctyh_-36" value="23" style="text;html=1;align=center;verticalAlign=middle;resizable=0;points=[];autosize=1;strokeColor=none;fillColor=none;" vertex="1" parent="1">
          <mxGeometry x="1760" y="684" width="40" height="30" as="geometry" />
        </mxCell>
        <mxCell id="vR3RuELotrSQ5nbctyh_-37" value="" style="endArrow=none;html=1;rounded=0;" edge="1" parent="1">
          <mxGeometry width="50" height="50" relative="1" as="geometry">
            <mxPoint x="1960" y="722" as="sourcePoint" />
            <mxPoint x="1960" y="642" as="targetPoint" />
          </mxGeometry>
        </mxCell>
        <mxCell id="vR3RuELotrSQ5nbctyh_-38" value="" style="endArrow=none;html=1;rounded=0;" edge="1" parent="1">
          <mxGeometry width="50" height="50" relative="1" as="geometry">
            <mxPoint x="1920" y="682" as="sourcePoint" />
            <mxPoint x="2000" y="682" as="targetPoint" />
          </mxGeometry>
        </mxCell>
        <mxCell id="vR3RuELotrSQ5nbctyh_-39" value="23" style="text;html=1;align=center;verticalAlign=middle;resizable=0;points=[];autosize=1;strokeColor=none;fillColor=none;" vertex="1" parent="1">
          <mxGeometry x="1920" y="650" width="40" height="30" as="geometry" />
        </mxCell>
        <mxCell id="vR3RuELotrSQ5nbctyh_-40" value="27" style="text;html=1;align=center;verticalAlign=middle;resizable=0;points=[];autosize=1;strokeColor=none;fillColor=none;" vertex="1" parent="1">
          <mxGeometry x="1960" y="650" width="40" height="30" as="geometry" />
        </mxCell>
        <mxCell id="vR3RuELotrSQ5nbctyh_-41" value="23" style="text;html=1;align=center;verticalAlign=middle;resizable=0;points=[];autosize=1;strokeColor=none;fillColor=none;" vertex="1" parent="1">
          <mxGeometry x="1920" y="684" width="40" height="30" as="geometry" />
        </mxCell>
        <mxCell id="vR3RuELotrSQ5nbctyh_-42" value="27" style="text;html=1;align=center;verticalAlign=middle;resizable=0;points=[];autosize=1;strokeColor=none;fillColor=none;" vertex="1" parent="1">
          <mxGeometry x="1960" y="683" width="40" height="30" as="geometry" />
        </mxCell>
        <mxCell id="vR3RuELotrSQ5nbctyh_-43" value="" style="endArrow=none;html=1;rounded=0;" edge="1" parent="1">
          <mxGeometry width="50" height="50" relative="1" as="geometry">
            <mxPoint x="1159" y="323" as="sourcePoint" />
            <mxPoint x="1159" y="243" as="targetPoint" />
          </mxGeometry>
        </mxCell>
        <mxCell id="vR3RuELotrSQ5nbctyh_-44" value="" style="endArrow=none;html=1;rounded=0;" edge="1" parent="1">
          <mxGeometry width="50" height="50" relative="1" as="geometry">
            <mxPoint x="1119" y="283" as="sourcePoint" />
            <mxPoint x="1199" y="283" as="targetPoint" />
          </mxGeometry>
        </mxCell>
        <mxCell id="vR3RuELotrSQ5nbctyh_-45" value="5" style="text;html=1;align=center;verticalAlign=middle;resizable=0;points=[];autosize=1;strokeColor=none;fillColor=none;" vertex="1" parent="1">
          <mxGeometry x="1124" y="251" width="30" height="30" as="geometry" />
        </mxCell>
        <mxCell id="vR3RuELotrSQ5nbctyh_-46" value="8" style="text;html=1;align=center;verticalAlign=middle;resizable=0;points=[];autosize=1;strokeColor=none;fillColor=none;" vertex="1" parent="1">
          <mxGeometry x="1164" y="251" width="30" height="30" as="geometry" />
        </mxCell>
        <mxCell id="vR3RuELotrSQ5nbctyh_-47" value="5" style="text;html=1;align=center;verticalAlign=middle;resizable=0;points=[];autosize=1;strokeColor=none;fillColor=none;" vertex="1" parent="1">
          <mxGeometry x="1124" y="285" width="30" height="30" as="geometry" />
        </mxCell>
        <mxCell id="vR3RuELotrSQ5nbctyh_-48" value="8" style="text;html=1;align=center;verticalAlign=middle;resizable=0;points=[];autosize=1;strokeColor=none;fillColor=none;" vertex="1" parent="1">
          <mxGeometry x="1164" y="284" width="30" height="30" as="geometry" />
        </mxCell>
        <mxCell id="vR3RuELotrSQ5nbctyh_-49" value="" style="endArrow=none;html=1;rounded=0;" edge="1" parent="1">
          <mxGeometry width="50" height="50" relative="1" as="geometry">
            <mxPoint x="1360" y="320" as="sourcePoint" />
            <mxPoint x="1360" y="240" as="targetPoint" />
          </mxGeometry>
        </mxCell>
        <mxCell id="vR3RuELotrSQ5nbctyh_-50" value="" style="endArrow=none;html=1;rounded=0;" edge="1" parent="1">
          <mxGeometry width="50" height="50" relative="1" as="geometry">
            <mxPoint x="1320" y="280" as="sourcePoint" />
            <mxPoint x="1400" y="280" as="targetPoint" />
          </mxGeometry>
        </mxCell>
        <mxCell id="vR3RuELotrSQ5nbctyh_-51" value="8" style="text;html=1;align=center;verticalAlign=middle;resizable=0;points=[];autosize=1;strokeColor=none;fillColor=none;" vertex="1" parent="1">
          <mxGeometry x="1325" y="248" width="30" height="30" as="geometry" />
        </mxCell>
        <mxCell id="vR3RuELotrSQ5nbctyh_-52" value="11" style="text;html=1;align=center;verticalAlign=middle;resizable=0;points=[];autosize=1;strokeColor=none;fillColor=none;" vertex="1" parent="1">
          <mxGeometry x="1360" y="248" width="40" height="30" as="geometry" />
        </mxCell>
        <mxCell id="vR3RuELotrSQ5nbctyh_-53" value="8" style="text;html=1;align=center;verticalAlign=middle;resizable=0;points=[];autosize=1;strokeColor=none;fillColor=none;" vertex="1" parent="1">
          <mxGeometry x="1325" y="282" width="30" height="30" as="geometry" />
        </mxCell>
        <mxCell id="vR3RuELotrSQ5nbctyh_-54" value="11" style="text;html=1;align=center;verticalAlign=middle;resizable=0;points=[];autosize=1;strokeColor=none;fillColor=none;" vertex="1" parent="1">
          <mxGeometry x="1360" y="281" width="40" height="30" as="geometry" />
        </mxCell>
        <mxCell id="vR3RuELotrSQ5nbctyh_-55" value="" style="endArrow=none;html=1;rounded=0;" edge="1" parent="1">
          <mxGeometry width="50" height="50" relative="1" as="geometry">
            <mxPoint x="1560" y="321" as="sourcePoint" />
            <mxPoint x="1560" y="241" as="targetPoint" />
          </mxGeometry>
        </mxCell>
        <mxCell id="vR3RuELotrSQ5nbctyh_-56" value="" style="endArrow=none;html=1;rounded=0;" edge="1" parent="1">
          <mxGeometry width="50" height="50" relative="1" as="geometry">
            <mxPoint x="1520" y="281" as="sourcePoint" />
            <mxPoint x="1600" y="281" as="targetPoint" />
          </mxGeometry>
        </mxCell>
        <mxCell id="vR3RuELotrSQ5nbctyh_-57" value="11" style="text;html=1;align=center;verticalAlign=middle;resizable=0;points=[];autosize=1;strokeColor=none;fillColor=none;" vertex="1" parent="1">
          <mxGeometry x="1520" y="249" width="40" height="30" as="geometry" />
        </mxCell>
        <mxCell id="vR3RuELotrSQ5nbctyh_-58" value="15" style="text;html=1;align=center;verticalAlign=middle;resizable=0;points=[];autosize=1;strokeColor=none;fillColor=none;" vertex="1" parent="1">
          <mxGeometry x="1560" y="249" width="40" height="30" as="geometry" />
        </mxCell>
        <mxCell id="vR3RuELotrSQ5nbctyh_-59" value="11" style="text;html=1;align=center;verticalAlign=middle;resizable=0;points=[];autosize=1;strokeColor=none;fillColor=none;" vertex="1" parent="1">
          <mxGeometry x="1520" y="283" width="40" height="30" as="geometry" />
        </mxCell>
        <mxCell id="vR3RuELotrSQ5nbctyh_-60" value="15" style="text;html=1;align=center;verticalAlign=middle;resizable=0;points=[];autosize=1;strokeColor=none;fillColor=none;" vertex="1" parent="1">
          <mxGeometry x="1560" y="282" width="40" height="30" as="geometry" />
        </mxCell>
        <mxCell id="vR3RuELotrSQ5nbctyh_-61" value="" style="endArrow=none;html=1;rounded=0;" edge="1" parent="1">
          <mxGeometry width="50" height="50" relative="1" as="geometry">
            <mxPoint x="1760" y="322" as="sourcePoint" />
            <mxPoint x="1760" y="242" as="targetPoint" />
          </mxGeometry>
        </mxCell>
        <mxCell id="vR3RuELotrSQ5nbctyh_-62" value="" style="endArrow=none;html=1;rounded=0;" edge="1" parent="1">
          <mxGeometry width="50" height="50" relative="1" as="geometry">
            <mxPoint x="1720" y="282" as="sourcePoint" />
            <mxPoint x="1800" y="282" as="targetPoint" />
          </mxGeometry>
        </mxCell>
        <mxCell id="vR3RuELotrSQ5nbctyh_-63" value="15" style="text;html=1;align=center;verticalAlign=middle;resizable=0;points=[];autosize=1;strokeColor=none;fillColor=none;" vertex="1" parent="1">
          <mxGeometry x="1720" y="250" width="40" height="30" as="geometry" />
        </mxCell>
        <mxCell id="vR3RuELotrSQ5nbctyh_-64" value="17" style="text;html=1;align=center;verticalAlign=middle;resizable=0;points=[];autosize=1;strokeColor=none;fillColor=none;" vertex="1" parent="1">
          <mxGeometry x="1760" y="250" width="40" height="30" as="geometry" />
        </mxCell>
        <mxCell id="vR3RuELotrSQ5nbctyh_-65" value="15" style="text;html=1;align=center;verticalAlign=middle;resizable=0;points=[];autosize=1;strokeColor=none;fillColor=none;" vertex="1" parent="1">
          <mxGeometry x="1720" y="284" width="40" height="30" as="geometry" />
        </mxCell>
        <mxCell id="vR3RuELotrSQ5nbctyh_-66" value="17" style="text;html=1;align=center;verticalAlign=middle;resizable=0;points=[];autosize=1;strokeColor=none;fillColor=none;" vertex="1" parent="1">
          <mxGeometry x="1760" y="283" width="40" height="30" as="geometry" />
        </mxCell>
        <mxCell id="vR3RuELotrSQ5nbctyh_-67" value="" style="endArrow=none;html=1;rounded=0;" edge="1" parent="1">
          <mxGeometry width="50" height="50" relative="1" as="geometry">
            <mxPoint x="1960" y="322" as="sourcePoint" />
            <mxPoint x="1960" y="242" as="targetPoint" />
          </mxGeometry>
        </mxCell>
        <mxCell id="vR3RuELotrSQ5nbctyh_-68" value="" style="endArrow=none;html=1;rounded=0;" edge="1" parent="1">
          <mxGeometry width="50" height="50" relative="1" as="geometry">
            <mxPoint x="1920" y="282" as="sourcePoint" />
            <mxPoint x="2000" y="282" as="targetPoint" />
          </mxGeometry>
        </mxCell>
        <mxCell id="vR3RuELotrSQ5nbctyh_-69" value="17" style="text;html=1;align=center;verticalAlign=middle;resizable=0;points=[];autosize=1;strokeColor=none;fillColor=none;" vertex="1" parent="1">
          <mxGeometry x="1920" y="250" width="40" height="30" as="geometry" />
        </mxCell>
        <mxCell id="vR3RuELotrSQ5nbctyh_-70" value="18" style="text;html=1;align=center;verticalAlign=middle;resizable=0;points=[];autosize=1;strokeColor=none;fillColor=none;" vertex="1" parent="1">
          <mxGeometry x="1960" y="250" width="40" height="30" as="geometry" />
        </mxCell>
        <mxCell id="vR3RuELotrSQ5nbctyh_-71" value="17" style="text;html=1;align=center;verticalAlign=middle;resizable=0;points=[];autosize=1;strokeColor=none;fillColor=none;" vertex="1" parent="1">
          <mxGeometry x="1920" y="284" width="40" height="30" as="geometry" />
        </mxCell>
        <mxCell id="vR3RuELotrSQ5nbctyh_-72" value="18" style="text;html=1;align=center;verticalAlign=middle;resizable=0;points=[];autosize=1;strokeColor=none;fillColor=none;" vertex="1" parent="1">
          <mxGeometry x="1960" y="283" width="40" height="30" as="geometry" />
        </mxCell>
        <mxCell id="vR3RuELotrSQ5nbctyh_-73" value="" style="endArrow=none;html=1;rounded=0;" edge="1" parent="1">
          <mxGeometry width="50" height="50" relative="1" as="geometry">
            <mxPoint x="2160" y="322" as="sourcePoint" />
            <mxPoint x="2160" y="242" as="targetPoint" />
          </mxGeometry>
        </mxCell>
        <mxCell id="vR3RuELotrSQ5nbctyh_-74" value="" style="endArrow=none;html=1;rounded=0;" edge="1" parent="1">
          <mxGeometry width="50" height="50" relative="1" as="geometry">
            <mxPoint x="2120" y="282" as="sourcePoint" />
            <mxPoint x="2200" y="282" as="targetPoint" />
          </mxGeometry>
        </mxCell>
        <mxCell id="vR3RuELotrSQ5nbctyh_-75" value="18" style="text;html=1;align=center;verticalAlign=middle;resizable=0;points=[];autosize=1;strokeColor=none;fillColor=none;" vertex="1" parent="1">
          <mxGeometry x="2120" y="250" width="40" height="30" as="geometry" />
        </mxCell>
        <mxCell id="vR3RuELotrSQ5nbctyh_-76" value="22" style="text;html=1;align=center;verticalAlign=middle;resizable=0;points=[];autosize=1;strokeColor=none;fillColor=none;" vertex="1" parent="1">
          <mxGeometry x="2160" y="250" width="40" height="30" as="geometry" />
        </mxCell>
        <mxCell id="vR3RuELotrSQ5nbctyh_-77" value="18" style="text;html=1;align=center;verticalAlign=middle;resizable=0;points=[];autosize=1;strokeColor=none;fillColor=none;" vertex="1" parent="1">
          <mxGeometry x="2120" y="284" width="40" height="30" as="geometry" />
        </mxCell>
        <mxCell id="vR3RuELotrSQ5nbctyh_-78" value="22" style="text;html=1;align=center;verticalAlign=middle;resizable=0;points=[];autosize=1;strokeColor=none;fillColor=none;" vertex="1" parent="1">
          <mxGeometry x="2160" y="283" width="40" height="30" as="geometry" />
        </mxCell>
        <mxCell id="vR3RuELotrSQ5nbctyh_-79" value="" style="endArrow=none;html=1;rounded=0;" edge="1" parent="1">
          <mxGeometry width="50" height="50" relative="1" as="geometry">
            <mxPoint x="2160" y="722" as="sourcePoint" />
            <mxPoint x="2160" y="642" as="targetPoint" />
          </mxGeometry>
        </mxCell>
        <mxCell id="vR3RuELotrSQ5nbctyh_-80" value="" style="endArrow=none;html=1;rounded=0;" edge="1" parent="1">
          <mxGeometry width="50" height="50" relative="1" as="geometry">
            <mxPoint x="2120" y="682" as="sourcePoint" />
            <mxPoint x="2200" y="682" as="targetPoint" />
          </mxGeometry>
        </mxCell>
        <mxCell id="vR3RuELotrSQ5nbctyh_-81" value="27" style="text;html=1;align=center;verticalAlign=middle;resizable=0;points=[];autosize=1;strokeColor=none;fillColor=none;" vertex="1" parent="1">
          <mxGeometry x="2120" y="650" width="40" height="30" as="geometry" />
        </mxCell>
        <mxCell id="vR3RuELotrSQ5nbctyh_-82" value="29" style="text;html=1;align=center;verticalAlign=middle;resizable=0;points=[];autosize=1;strokeColor=none;fillColor=none;" vertex="1" parent="1">
          <mxGeometry x="2160" y="650" width="40" height="30" as="geometry" />
        </mxCell>
        <mxCell id="vR3RuELotrSQ5nbctyh_-83" value="27" style="text;html=1;align=center;verticalAlign=middle;resizable=0;points=[];autosize=1;strokeColor=none;fillColor=none;" vertex="1" parent="1">
          <mxGeometry x="2120" y="684" width="40" height="30" as="geometry" />
        </mxCell>
        <mxCell id="vR3RuELotrSQ5nbctyh_-84" value="29" style="text;html=1;align=center;verticalAlign=middle;resizable=0;points=[];autosize=1;strokeColor=none;fillColor=none;" vertex="1" parent="1">
          <mxGeometry x="2160" y="683" width="40" height="30" as="geometry" />
        </mxCell>
        <mxCell id="vR3RuELotrSQ5nbctyh_-85" value="" style="endArrow=none;html=1;rounded=0;" edge="1" parent="1">
          <mxGeometry width="50" height="50" relative="1" as="geometry">
            <mxPoint x="2360" y="720" as="sourcePoint" />
            <mxPoint x="2360" y="640" as="targetPoint" />
          </mxGeometry>
        </mxCell>
        <mxCell id="vR3RuELotrSQ5nbctyh_-86" value="" style="endArrow=none;html=1;rounded=0;" edge="1" parent="1">
          <mxGeometry width="50" height="50" relative="1" as="geometry">
            <mxPoint x="2320" y="680" as="sourcePoint" />
            <mxPoint x="2400" y="680" as="targetPoint" />
          </mxGeometry>
        </mxCell>
        <mxCell id="vR3RuELotrSQ5nbctyh_-87" value="29" style="text;html=1;align=center;verticalAlign=middle;resizable=0;points=[];autosize=1;strokeColor=none;fillColor=none;" vertex="1" parent="1">
          <mxGeometry x="2320" y="648" width="40" height="30" as="geometry" />
        </mxCell>
        <mxCell id="vR3RuELotrSQ5nbctyh_-88" value="31" style="text;html=1;align=center;verticalAlign=middle;resizable=0;points=[];autosize=1;strokeColor=none;fillColor=none;" vertex="1" parent="1">
          <mxGeometry x="2360" y="648" width="40" height="30" as="geometry" />
        </mxCell>
        <mxCell id="vR3RuELotrSQ5nbctyh_-89" value="29" style="text;html=1;align=center;verticalAlign=middle;resizable=0;points=[];autosize=1;strokeColor=none;fillColor=none;" vertex="1" parent="1">
          <mxGeometry x="2320" y="682" width="40" height="30" as="geometry" />
        </mxCell>
        <mxCell id="vR3RuELotrSQ5nbctyh_-90" value="41" style="text;html=1;align=center;verticalAlign=middle;resizable=0;points=[];autosize=1;strokeColor=none;fillColor=none;" vertex="1" parent="1">
          <mxGeometry x="2360" y="681" width="40" height="30" as="geometry" />
        </mxCell>
        <mxCell id="vR3RuELotrSQ5nbctyh_-91" value="" style="endArrow=none;html=1;rounded=0;" edge="1" parent="1">
          <mxGeometry width="50" height="50" relative="1" as="geometry">
            <mxPoint x="2360" y="322" as="sourcePoint" />
            <mxPoint x="2360" y="242" as="targetPoint" />
          </mxGeometry>
        </mxCell>
        <mxCell id="vR3RuELotrSQ5nbctyh_-92" value="" style="endArrow=none;html=1;rounded=0;" edge="1" parent="1">
          <mxGeometry width="50" height="50" relative="1" as="geometry">
            <mxPoint x="2320" y="282" as="sourcePoint" />
            <mxPoint x="2400" y="282" as="targetPoint" />
          </mxGeometry>
        </mxCell>
        <mxCell id="vR3RuELotrSQ5nbctyh_-93" value="22" style="text;html=1;align=center;verticalAlign=middle;resizable=0;points=[];autosize=1;strokeColor=none;fillColor=none;" vertex="1" parent="1">
          <mxGeometry x="2320" y="250" width="40" height="30" as="geometry" />
        </mxCell>
        <mxCell id="vR3RuELotrSQ5nbctyh_-94" value="26" style="text;html=1;align=center;verticalAlign=middle;resizable=0;points=[];autosize=1;strokeColor=none;fillColor=none;" vertex="1" parent="1">
          <mxGeometry x="2360" y="250" width="40" height="30" as="geometry" />
        </mxCell>
        <mxCell id="vR3RuELotrSQ5nbctyh_-95" value="22" style="text;html=1;align=center;verticalAlign=middle;resizable=0;points=[];autosize=1;strokeColor=none;fillColor=none;" vertex="1" parent="1">
          <mxGeometry x="2320" y="284" width="40" height="30" as="geometry" />
        </mxCell>
        <mxCell id="vR3RuELotrSQ5nbctyh_-96" value="26" style="text;html=1;align=center;verticalAlign=middle;resizable=0;points=[];autosize=1;strokeColor=none;fillColor=none;" vertex="1" parent="1">
          <mxGeometry x="2360" y="283" width="40" height="30" as="geometry" />
        </mxCell>
        <mxCell id="vR3RuELotrSQ5nbctyh_-97" value="" style="endArrow=none;html=1;rounded=0;" edge="1" parent="1">
          <mxGeometry width="50" height="50" relative="1" as="geometry">
            <mxPoint x="2560" y="322" as="sourcePoint" />
            <mxPoint x="2560" y="242" as="targetPoint" />
          </mxGeometry>
        </mxCell>
        <mxCell id="vR3RuELotrSQ5nbctyh_-98" value="" style="endArrow=none;html=1;rounded=0;" edge="1" parent="1">
          <mxGeometry width="50" height="50" relative="1" as="geometry">
            <mxPoint x="2520" y="282" as="sourcePoint" />
            <mxPoint x="2600" y="282" as="targetPoint" />
          </mxGeometry>
        </mxCell>
        <mxCell id="vR3RuELotrSQ5nbctyh_-99" value="26" style="text;html=1;align=center;verticalAlign=middle;resizable=0;points=[];autosize=1;strokeColor=none;fillColor=none;" vertex="1" parent="1">
          <mxGeometry x="2520" y="250" width="40" height="30" as="geometry" />
        </mxCell>
        <mxCell id="vR3RuELotrSQ5nbctyh_-100" value="29" style="text;html=1;align=center;verticalAlign=middle;resizable=0;points=[];autosize=1;strokeColor=none;fillColor=none;" vertex="1" parent="1">
          <mxGeometry x="2560" y="250" width="40" height="30" as="geometry" />
        </mxCell>
        <mxCell id="vR3RuELotrSQ5nbctyh_-101" value="26" style="text;html=1;align=center;verticalAlign=middle;resizable=0;points=[];autosize=1;strokeColor=none;fillColor=none;" vertex="1" parent="1">
          <mxGeometry x="2525" y="285" width="40" height="30" as="geometry" />
        </mxCell>
        <mxCell id="vR3RuELotrSQ5nbctyh_-102" value="29" style="text;html=1;align=center;verticalAlign=middle;resizable=0;points=[];autosize=1;strokeColor=none;fillColor=none;" vertex="1" parent="1">
          <mxGeometry x="2560" y="283" width="40" height="30" as="geometry" />
        </mxCell>
        <mxCell id="vR3RuELotrSQ5nbctyh_-103" value="" style="endArrow=none;html=1;rounded=0;" edge="1" parent="1">
          <mxGeometry width="50" height="50" relative="1" as="geometry">
            <mxPoint x="2560" y="721" as="sourcePoint" />
            <mxPoint x="2560" y="641" as="targetPoint" />
          </mxGeometry>
        </mxCell>
        <mxCell id="vR3RuELotrSQ5nbctyh_-104" value="" style="endArrow=none;html=1;rounded=0;" edge="1" parent="1">
          <mxGeometry width="50" height="50" relative="1" as="geometry">
            <mxPoint x="2520" y="681" as="sourcePoint" />
            <mxPoint x="2600" y="681" as="targetPoint" />
          </mxGeometry>
        </mxCell>
        <mxCell id="vR3RuELotrSQ5nbctyh_-105" value="31" style="text;html=1;align=center;verticalAlign=middle;resizable=0;points=[];autosize=1;strokeColor=none;fillColor=none;" vertex="1" parent="1">
          <mxGeometry x="2520" y="649" width="40" height="30" as="geometry" />
        </mxCell>
        <mxCell id="vR3RuELotrSQ5nbctyh_-106" value="33" style="text;html=1;align=center;verticalAlign=middle;resizable=0;points=[];autosize=1;strokeColor=none;fillColor=none;" vertex="1" parent="1">
          <mxGeometry x="2560" y="649" width="40" height="30" as="geometry" />
        </mxCell>
        <mxCell id="vR3RuELotrSQ5nbctyh_-107" value="31" style="text;html=1;align=center;verticalAlign=middle;resizable=0;points=[];autosize=1;strokeColor=none;fillColor=none;" vertex="1" parent="1">
          <mxGeometry x="2520" y="683" width="40" height="30" as="geometry" />
        </mxCell>
        <mxCell id="vR3RuELotrSQ5nbctyh_-108" value="33" style="text;html=1;align=center;verticalAlign=middle;resizable=0;points=[];autosize=1;strokeColor=none;fillColor=none;" vertex="1" parent="1">
          <mxGeometry x="2560" y="682" width="40" height="30" as="geometry" />
        </mxCell>
        <mxCell id="vR3RuELotrSQ5nbctyh_-109" value="" style="endArrow=none;html=1;rounded=0;" edge="1" parent="1">
          <mxGeometry width="50" height="50" relative="1" as="geometry">
            <mxPoint x="2760" y="720" as="sourcePoint" />
            <mxPoint x="2760" y="640" as="targetPoint" />
          </mxGeometry>
        </mxCell>
        <mxCell id="vR3RuELotrSQ5nbctyh_-110" value="" style="endArrow=none;html=1;rounded=0;" edge="1" parent="1">
          <mxGeometry width="50" height="50" relative="1" as="geometry">
            <mxPoint x="2720" y="680" as="sourcePoint" />
            <mxPoint x="2800" y="680" as="targetPoint" />
          </mxGeometry>
        </mxCell>
        <mxCell id="vR3RuELotrSQ5nbctyh_-111" value="33" style="text;html=1;align=center;verticalAlign=middle;resizable=0;points=[];autosize=1;strokeColor=none;fillColor=none;" vertex="1" parent="1">
          <mxGeometry x="2720" y="648" width="40" height="30" as="geometry" />
        </mxCell>
        <mxCell id="vR3RuELotrSQ5nbctyh_-112" value="37" style="text;html=1;align=center;verticalAlign=middle;resizable=0;points=[];autosize=1;strokeColor=none;fillColor=none;" vertex="1" parent="1">
          <mxGeometry x="2760" y="648" width="40" height="30" as="geometry" />
        </mxCell>
        <mxCell id="vR3RuELotrSQ5nbctyh_-113" value="33" style="text;html=1;align=center;verticalAlign=middle;resizable=0;points=[];autosize=1;strokeColor=none;fillColor=none;" vertex="1" parent="1">
          <mxGeometry x="2720" y="682" width="40" height="30" as="geometry" />
        </mxCell>
        <mxCell id="vR3RuELotrSQ5nbctyh_-114" value="37" style="text;html=1;align=center;verticalAlign=middle;resizable=0;points=[];autosize=1;strokeColor=none;fillColor=none;" vertex="1" parent="1">
          <mxGeometry x="2760" y="681" width="40" height="30" as="geometry" />
        </mxCell>
        <mxCell id="vR3RuELotrSQ5nbctyh_-115" value="" style="endArrow=none;html=1;rounded=0;" edge="1" parent="1">
          <mxGeometry width="50" height="50" relative="1" as="geometry">
            <mxPoint x="2760" y="319" as="sourcePoint" />
            <mxPoint x="2760" y="239" as="targetPoint" />
          </mxGeometry>
        </mxCell>
        <mxCell id="vR3RuELotrSQ5nbctyh_-116" value="" style="endArrow=none;html=1;rounded=0;" edge="1" parent="1">
          <mxGeometry width="50" height="50" relative="1" as="geometry">
            <mxPoint x="2720" y="279" as="sourcePoint" />
            <mxPoint x="2800" y="279" as="targetPoint" />
          </mxGeometry>
        </mxCell>
        <mxCell id="vR3RuELotrSQ5nbctyh_-117" value="29" style="text;html=1;align=center;verticalAlign=middle;resizable=0;points=[];autosize=1;strokeColor=none;fillColor=none;" vertex="1" parent="1">
          <mxGeometry x="2720" y="247" width="40" height="30" as="geometry" />
        </mxCell>
        <mxCell id="vR3RuELotrSQ5nbctyh_-118" value="32" style="text;html=1;align=center;verticalAlign=middle;resizable=0;points=[];autosize=1;strokeColor=none;fillColor=none;" vertex="1" parent="1">
          <mxGeometry x="2760" y="247" width="40" height="30" as="geometry" />
        </mxCell>
        <mxCell id="vR3RuELotrSQ5nbctyh_-119" value="29" style="text;html=1;align=center;verticalAlign=middle;resizable=0;points=[];autosize=1;strokeColor=none;fillColor=none;" vertex="1" parent="1">
          <mxGeometry x="2720" y="281" width="40" height="30" as="geometry" />
        </mxCell>
        <mxCell id="vR3RuELotrSQ5nbctyh_-120" value="32" style="text;html=1;align=center;verticalAlign=middle;resizable=0;points=[];autosize=1;strokeColor=none;fillColor=none;" vertex="1" parent="1">
          <mxGeometry x="2760" y="280" width="40" height="30" as="geometry" />
        </mxCell>
        <mxCell id="vR3RuELotrSQ5nbctyh_-121" value="" style="endArrow=none;html=1;rounded=0;" edge="1" parent="1">
          <mxGeometry width="50" height="50" relative="1" as="geometry">
            <mxPoint x="2960" y="722" as="sourcePoint" />
            <mxPoint x="2960" y="642" as="targetPoint" />
          </mxGeometry>
        </mxCell>
        <mxCell id="vR3RuELotrSQ5nbctyh_-122" value="" style="endArrow=none;html=1;rounded=0;" edge="1" parent="1">
          <mxGeometry width="50" height="50" relative="1" as="geometry">
            <mxPoint x="2920" y="682" as="sourcePoint" />
            <mxPoint x="3000" y="682" as="targetPoint" />
          </mxGeometry>
        </mxCell>
        <mxCell id="vR3RuELotrSQ5nbctyh_-123" value="37" style="text;html=1;align=center;verticalAlign=middle;resizable=0;points=[];autosize=1;strokeColor=none;fillColor=none;" vertex="1" parent="1">
          <mxGeometry x="2920" y="650" width="40" height="30" as="geometry" />
        </mxCell>
        <mxCell id="vR3RuELotrSQ5nbctyh_-124" value="41" style="text;html=1;align=center;verticalAlign=middle;resizable=0;points=[];autosize=1;strokeColor=none;fillColor=none;" vertex="1" parent="1">
          <mxGeometry x="2960" y="650" width="40" height="30" as="geometry" />
        </mxCell>
        <mxCell id="vR3RuELotrSQ5nbctyh_-125" value="37" style="text;html=1;align=center;verticalAlign=middle;resizable=0;points=[];autosize=1;strokeColor=none;fillColor=none;" vertex="1" parent="1">
          <mxGeometry x="2920" y="684" width="40" height="30" as="geometry" />
        </mxCell>
        <mxCell id="vR3RuELotrSQ5nbctyh_-126" value="41" style="text;html=1;align=center;verticalAlign=middle;resizable=0;points=[];autosize=1;strokeColor=none;fillColor=none;" vertex="1" parent="1">
          <mxGeometry x="2960" y="683" width="40" height="30" as="geometry" />
        </mxCell>
        <mxCell id="vR3RuELotrSQ5nbctyh_-127" value="" style="endArrow=none;html=1;rounded=0;" edge="1" parent="1">
          <mxGeometry width="50" height="50" relative="1" as="geometry">
            <mxPoint x="2959" y="320" as="sourcePoint" />
            <mxPoint x="2959" y="240" as="targetPoint" />
          </mxGeometry>
        </mxCell>
        <mxCell id="vR3RuELotrSQ5nbctyh_-128" value="" style="endArrow=none;html=1;rounded=0;" edge="1" parent="1">
          <mxGeometry width="50" height="50" relative="1" as="geometry">
            <mxPoint x="2919" y="280" as="sourcePoint" />
            <mxPoint x="2999" y="280" as="targetPoint" />
          </mxGeometry>
        </mxCell>
        <mxCell id="vR3RuELotrSQ5nbctyh_-129" value="32" style="text;html=1;align=center;verticalAlign=middle;resizable=0;points=[];autosize=1;strokeColor=none;fillColor=none;" vertex="1" parent="1">
          <mxGeometry x="2919" y="248" width="40" height="30" as="geometry" />
        </mxCell>
        <mxCell id="vR3RuELotrSQ5nbctyh_-130" value="36" style="text;html=1;align=center;verticalAlign=middle;resizable=0;points=[];autosize=1;strokeColor=none;fillColor=none;" vertex="1" parent="1">
          <mxGeometry x="2959" y="248" width="40" height="30" as="geometry" />
        </mxCell>
        <mxCell id="vR3RuELotrSQ5nbctyh_-131" value="32" style="text;html=1;align=center;verticalAlign=middle;resizable=0;points=[];autosize=1;strokeColor=none;fillColor=none;" vertex="1" parent="1">
          <mxGeometry x="2919" y="282" width="40" height="30" as="geometry" />
        </mxCell>
        <mxCell id="vR3RuELotrSQ5nbctyh_-132" value="36" style="text;html=1;align=center;verticalAlign=middle;resizable=0;points=[];autosize=1;strokeColor=none;fillColor=none;" vertex="1" parent="1">
          <mxGeometry x="2959" y="281" width="40" height="30" as="geometry" />
        </mxCell>
        <mxCell id="vR3RuELotrSQ5nbctyh_-133" value="" style="endArrow=none;html=1;rounded=0;" edge="1" parent="1">
          <mxGeometry width="50" height="50" relative="1" as="geometry">
            <mxPoint x="3160" y="323" as="sourcePoint" />
            <mxPoint x="3160" y="243" as="targetPoint" />
          </mxGeometry>
        </mxCell>
        <mxCell id="vR3RuELotrSQ5nbctyh_-134" value="" style="endArrow=none;html=1;rounded=0;" edge="1" parent="1">
          <mxGeometry width="50" height="50" relative="1" as="geometry">
            <mxPoint x="3120" y="283" as="sourcePoint" />
            <mxPoint x="3200" y="283" as="targetPoint" />
          </mxGeometry>
        </mxCell>
        <mxCell id="vR3RuELotrSQ5nbctyh_-135" value="36" style="text;html=1;align=center;verticalAlign=middle;resizable=0;points=[];autosize=1;strokeColor=none;fillColor=none;" vertex="1" parent="1">
          <mxGeometry x="3120" y="251" width="40" height="30" as="geometry" />
        </mxCell>
        <mxCell id="vR3RuELotrSQ5nbctyh_-136" value="40" style="text;html=1;align=center;verticalAlign=middle;resizable=0;points=[];autosize=1;strokeColor=none;fillColor=none;" vertex="1" parent="1">
          <mxGeometry x="3160" y="251" width="40" height="30" as="geometry" />
        </mxCell>
        <mxCell id="vR3RuELotrSQ5nbctyh_-137" value="36" style="text;html=1;align=center;verticalAlign=middle;resizable=0;points=[];autosize=1;strokeColor=none;fillColor=none;" vertex="1" parent="1">
          <mxGeometry x="3120" y="285" width="40" height="30" as="geometry" />
        </mxCell>
        <mxCell id="vR3RuELotrSQ5nbctyh_-138" value="40" style="text;html=1;align=center;verticalAlign=middle;resizable=0;points=[];autosize=1;strokeColor=none;fillColor=none;" vertex="1" parent="1">
          <mxGeometry x="3160" y="284" width="40" height="30" as="geometry" />
        </mxCell>
        <mxCell id="vR3RuELotrSQ5nbctyh_-139" value="" style="endArrow=none;html=1;rounded=0;" edge="1" parent="1">
          <mxGeometry width="50" height="50" relative="1" as="geometry">
            <mxPoint x="3159" y="720" as="sourcePoint" />
            <mxPoint x="3159" y="640" as="targetPoint" />
          </mxGeometry>
        </mxCell>
        <mxCell id="vR3RuELotrSQ5nbctyh_-140" value="" style="endArrow=none;html=1;rounded=0;" edge="1" parent="1">
          <mxGeometry width="50" height="50" relative="1" as="geometry">
            <mxPoint x="3119" y="680" as="sourcePoint" />
            <mxPoint x="3199" y="680" as="targetPoint" />
          </mxGeometry>
        </mxCell>
        <mxCell id="vR3RuELotrSQ5nbctyh_-141" value="41" style="text;html=1;align=center;verticalAlign=middle;resizable=0;points=[];autosize=1;strokeColor=none;fillColor=none;" vertex="1" parent="1">
          <mxGeometry x="3119" y="648" width="40" height="30" as="geometry" />
        </mxCell>
        <mxCell id="vR3RuELotrSQ5nbctyh_-142" value="45" style="text;html=1;align=center;verticalAlign=middle;resizable=0;points=[];autosize=1;strokeColor=none;fillColor=none;" vertex="1" parent="1">
          <mxGeometry x="3159" y="648" width="40" height="30" as="geometry" />
        </mxCell>
        <mxCell id="vR3RuELotrSQ5nbctyh_-143" value="41" style="text;html=1;align=center;verticalAlign=middle;resizable=0;points=[];autosize=1;strokeColor=none;fillColor=none;" vertex="1" parent="1">
          <mxGeometry x="3119" y="682" width="40" height="30" as="geometry" />
        </mxCell>
        <mxCell id="vR3RuELotrSQ5nbctyh_-144" value="45" style="text;html=1;align=center;verticalAlign=middle;resizable=0;points=[];autosize=1;strokeColor=none;fillColor=none;" vertex="1" parent="1">
          <mxGeometry x="3159" y="681" width="40" height="30" as="geometry" />
        </mxCell>
        <mxCell id="vR3RuELotrSQ5nbctyh_-145" value="" style="endArrow=none;html=1;rounded=0;" edge="1" parent="1">
          <mxGeometry width="50" height="50" relative="1" as="geometry">
            <mxPoint x="3361" y="719" as="sourcePoint" />
            <mxPoint x="3361" y="639" as="targetPoint" />
          </mxGeometry>
        </mxCell>
        <mxCell id="vR3RuELotrSQ5nbctyh_-146" value="" style="endArrow=none;html=1;rounded=0;" edge="1" parent="1">
          <mxGeometry width="50" height="50" relative="1" as="geometry">
            <mxPoint x="3321" y="679" as="sourcePoint" />
            <mxPoint x="3401" y="679" as="targetPoint" />
          </mxGeometry>
        </mxCell>
        <mxCell id="vR3RuELotrSQ5nbctyh_-147" value="45" style="text;html=1;align=center;verticalAlign=middle;resizable=0;points=[];autosize=1;strokeColor=none;fillColor=none;" vertex="1" parent="1">
          <mxGeometry x="3321" y="647" width="40" height="30" as="geometry" />
        </mxCell>
        <mxCell id="vR3RuELotrSQ5nbctyh_-148" value="48" style="text;html=1;align=center;verticalAlign=middle;resizable=0;points=[];autosize=1;strokeColor=none;fillColor=none;" vertex="1" parent="1">
          <mxGeometry x="3361" y="647" width="40" height="30" as="geometry" />
        </mxCell>
        <mxCell id="vR3RuELotrSQ5nbctyh_-149" value="45" style="text;html=1;align=center;verticalAlign=middle;resizable=0;points=[];autosize=1;strokeColor=none;fillColor=none;" vertex="1" parent="1">
          <mxGeometry x="3321" y="681" width="40" height="30" as="geometry" />
        </mxCell>
        <mxCell id="vR3RuELotrSQ5nbctyh_-150" value="48" style="text;html=1;align=center;verticalAlign=middle;resizable=0;points=[];autosize=1;strokeColor=none;fillColor=none;" vertex="1" parent="1">
          <mxGeometry x="3361" y="680" width="40" height="30" as="geometry" />
        </mxCell>
        <mxCell id="vR3RuELotrSQ5nbctyh_-151" value="" style="endArrow=none;html=1;rounded=0;" edge="1" parent="1">
          <mxGeometry width="50" height="50" relative="1" as="geometry">
            <mxPoint x="3359" y="322" as="sourcePoint" />
            <mxPoint x="3359" y="242" as="targetPoint" />
          </mxGeometry>
        </mxCell>
        <mxCell id="vR3RuELotrSQ5nbctyh_-152" value="" style="endArrow=none;html=1;rounded=0;" edge="1" parent="1">
          <mxGeometry width="50" height="50" relative="1" as="geometry">
            <mxPoint x="3319" y="282" as="sourcePoint" />
            <mxPoint x="3399" y="282" as="targetPoint" />
          </mxGeometry>
        </mxCell>
        <mxCell id="vR3RuELotrSQ5nbctyh_-153" value="40" style="text;html=1;align=center;verticalAlign=middle;resizable=0;points=[];autosize=1;strokeColor=none;fillColor=none;" vertex="1" parent="1">
          <mxGeometry x="3319" y="250" width="40" height="30" as="geometry" />
        </mxCell>
        <mxCell id="vR3RuELotrSQ5nbctyh_-154" value="43" style="text;html=1;align=center;verticalAlign=middle;resizable=0;points=[];autosize=1;strokeColor=none;fillColor=none;" vertex="1" parent="1">
          <mxGeometry x="3359" y="250" width="40" height="30" as="geometry" />
        </mxCell>
        <mxCell id="vR3RuELotrSQ5nbctyh_-155" value="40" style="text;html=1;align=center;verticalAlign=middle;resizable=0;points=[];autosize=1;strokeColor=none;fillColor=none;" vertex="1" parent="1">
          <mxGeometry x="3319" y="284" width="40" height="30" as="geometry" />
        </mxCell>
        <mxCell id="vR3RuELotrSQ5nbctyh_-156" value="43" style="text;html=1;align=center;verticalAlign=middle;resizable=0;points=[];autosize=1;strokeColor=none;fillColor=none;" vertex="1" parent="1">
          <mxGeometry x="3359" y="283" width="40" height="30" as="geometry" />
        </mxCell>
        <mxCell id="vR3RuELotrSQ5nbctyh_-157" value="" style="endArrow=none;html=1;rounded=0;" edge="1" parent="1">
          <mxGeometry width="50" height="50" relative="1" as="geometry">
            <mxPoint x="3560" y="320" as="sourcePoint" />
            <mxPoint x="3560" y="240" as="targetPoint" />
          </mxGeometry>
        </mxCell>
        <mxCell id="vR3RuELotrSQ5nbctyh_-158" value="" style="endArrow=none;html=1;rounded=0;" edge="1" parent="1">
          <mxGeometry width="50" height="50" relative="1" as="geometry">
            <mxPoint x="3520" y="280" as="sourcePoint" />
            <mxPoint x="3600" y="280" as="targetPoint" />
          </mxGeometry>
        </mxCell>
        <mxCell id="vR3RuELotrSQ5nbctyh_-159" value="43" style="text;html=1;align=center;verticalAlign=middle;resizable=0;points=[];autosize=1;strokeColor=none;fillColor=none;" vertex="1" parent="1">
          <mxGeometry x="3520" y="248" width="40" height="30" as="geometry" />
        </mxCell>
        <mxCell id="vR3RuELotrSQ5nbctyh_-160" value="47" style="text;html=1;align=center;verticalAlign=middle;resizable=0;points=[];autosize=1;strokeColor=none;fillColor=none;" vertex="1" parent="1">
          <mxGeometry x="3560" y="248" width="40" height="30" as="geometry" />
        </mxCell>
        <mxCell id="vR3RuELotrSQ5nbctyh_-161" value="43" style="text;html=1;align=center;verticalAlign=middle;resizable=0;points=[];autosize=1;strokeColor=none;fillColor=none;" vertex="1" parent="1">
          <mxGeometry x="3520" y="282" width="40" height="30" as="geometry" />
        </mxCell>
        <mxCell id="vR3RuELotrSQ5nbctyh_-162" value="47" style="text;html=1;align=center;verticalAlign=middle;resizable=0;points=[];autosize=1;strokeColor=none;fillColor=none;" vertex="1" parent="1">
          <mxGeometry x="3560" y="281" width="40" height="30" as="geometry" />
        </mxCell>
        <mxCell id="vR3RuELotrSQ5nbctyh_-163" value="" style="endArrow=none;html=1;rounded=0;" edge="1" parent="1">
          <mxGeometry width="50" height="50" relative="1" as="geometry">
            <mxPoint x="3760" y="320" as="sourcePoint" />
            <mxPoint x="3760" y="240" as="targetPoint" />
          </mxGeometry>
        </mxCell>
        <mxCell id="vR3RuELotrSQ5nbctyh_-164" value="" style="endArrow=none;html=1;rounded=0;" edge="1" parent="1">
          <mxGeometry width="50" height="50" relative="1" as="geometry">
            <mxPoint x="3720" y="280" as="sourcePoint" />
            <mxPoint x="3800" y="280" as="targetPoint" />
          </mxGeometry>
        </mxCell>
        <mxCell id="vR3RuELotrSQ5nbctyh_-165" value="47" style="text;html=1;align=center;verticalAlign=middle;resizable=0;points=[];autosize=1;strokeColor=none;fillColor=none;" vertex="1" parent="1">
          <mxGeometry x="3720" y="248" width="40" height="30" as="geometry" />
        </mxCell>
        <mxCell id="vR3RuELotrSQ5nbctyh_-166" value="52" style="text;html=1;align=center;verticalAlign=middle;resizable=0;points=[];autosize=1;strokeColor=none;fillColor=none;" vertex="1" parent="1">
          <mxGeometry x="3760" y="248" width="40" height="30" as="geometry" />
        </mxCell>
        <mxCell id="vR3RuELotrSQ5nbctyh_-167" value="47" style="text;html=1;align=center;verticalAlign=middle;resizable=0;points=[];autosize=1;strokeColor=none;fillColor=none;" vertex="1" parent="1">
          <mxGeometry x="3720" y="282" width="40" height="30" as="geometry" />
        </mxCell>
        <mxCell id="vR3RuELotrSQ5nbctyh_-168" value="52" style="text;html=1;align=center;verticalAlign=middle;resizable=0;points=[];autosize=1;strokeColor=none;fillColor=none;" vertex="1" parent="1">
          <mxGeometry x="3760" y="281" width="40" height="30" as="geometry" />
        </mxCell>
        <mxCell id="vR3RuELotrSQ5nbctyh_-169" value="" style="endArrow=none;html=1;rounded=0;" edge="1" parent="1">
          <mxGeometry width="50" height="50" relative="1" as="geometry">
            <mxPoint x="3960" y="320" as="sourcePoint" />
            <mxPoint x="3960" y="240" as="targetPoint" />
          </mxGeometry>
        </mxCell>
        <mxCell id="vR3RuELotrSQ5nbctyh_-170" value="" style="endArrow=none;html=1;rounded=0;" edge="1" parent="1">
          <mxGeometry width="50" height="50" relative="1" as="geometry">
            <mxPoint x="3920" y="280" as="sourcePoint" />
            <mxPoint x="4000" y="280" as="targetPoint" />
          </mxGeometry>
        </mxCell>
        <mxCell id="vR3RuELotrSQ5nbctyh_-171" value="52" style="text;html=1;align=center;verticalAlign=middle;resizable=0;points=[];autosize=1;strokeColor=none;fillColor=none;" vertex="1" parent="1">
          <mxGeometry x="3920" y="248" width="40" height="30" as="geometry" />
        </mxCell>
        <mxCell id="vR3RuELotrSQ5nbctyh_-172" value="57" style="text;html=1;align=center;verticalAlign=middle;resizable=0;points=[];autosize=1;strokeColor=none;fillColor=none;" vertex="1" parent="1">
          <mxGeometry x="3960" y="248" width="40" height="30" as="geometry" />
        </mxCell>
        <mxCell id="vR3RuELotrSQ5nbctyh_-173" value="52" style="text;html=1;align=center;verticalAlign=middle;resizable=0;points=[];autosize=1;strokeColor=none;fillColor=none;" vertex="1" parent="1">
          <mxGeometry x="3920" y="282" width="40" height="30" as="geometry" />
        </mxCell>
        <mxCell id="vR3RuELotrSQ5nbctyh_-174" value="57" style="text;html=1;align=center;verticalAlign=middle;resizable=0;points=[];autosize=1;strokeColor=none;fillColor=none;" vertex="1" parent="1">
          <mxGeometry x="3960" y="281" width="40" height="30" as="geometry" />
        </mxCell>
        <mxCell id="vR3RuELotrSQ5nbctyh_-175" value="" style="endArrow=none;html=1;rounded=0;" edge="1" parent="1">
          <mxGeometry width="50" height="50" relative="1" as="geometry">
            <mxPoint x="4160" y="320" as="sourcePoint" />
            <mxPoint x="4160" y="240" as="targetPoint" />
          </mxGeometry>
        </mxCell>
        <mxCell id="vR3RuELotrSQ5nbctyh_-176" value="" style="endArrow=none;html=1;rounded=0;" edge="1" parent="1">
          <mxGeometry width="50" height="50" relative="1" as="geometry">
            <mxPoint x="4120" y="280" as="sourcePoint" />
            <mxPoint x="4200" y="280" as="targetPoint" />
          </mxGeometry>
        </mxCell>
        <mxCell id="vR3RuELotrSQ5nbctyh_-177" value="57" style="text;html=1;align=center;verticalAlign=middle;resizable=0;points=[];autosize=1;strokeColor=none;fillColor=none;" vertex="1" parent="1">
          <mxGeometry x="4120" y="248" width="40" height="30" as="geometry" />
        </mxCell>
        <mxCell id="vR3RuELotrSQ5nbctyh_-178" value="60" style="text;html=1;align=center;verticalAlign=middle;resizable=0;points=[];autosize=1;strokeColor=none;fillColor=none;" vertex="1" parent="1">
          <mxGeometry x="4160" y="248" width="40" height="30" as="geometry" />
        </mxCell>
        <mxCell id="vR3RuELotrSQ5nbctyh_-179" value="57" style="text;html=1;align=center;verticalAlign=middle;resizable=0;points=[];autosize=1;strokeColor=none;fillColor=none;" vertex="1" parent="1">
          <mxGeometry x="4120" y="282" width="40" height="30" as="geometry" />
        </mxCell>
        <mxCell id="vR3RuELotrSQ5nbctyh_-180" value="60" style="text;html=1;align=center;verticalAlign=middle;resizable=0;points=[];autosize=1;strokeColor=none;fillColor=none;" vertex="1" parent="1">
          <mxGeometry x="4160" y="281" width="40" height="30" as="geometry" />
        </mxCell>
        <mxCell id="vR3RuELotrSQ5nbctyh_-181" value="" style="endArrow=none;html=1;rounded=0;" edge="1" parent="1">
          <mxGeometry width="50" height="50" relative="1" as="geometry">
            <mxPoint x="4361" y="321" as="sourcePoint" />
            <mxPoint x="4361" y="241" as="targetPoint" />
          </mxGeometry>
        </mxCell>
        <mxCell id="vR3RuELotrSQ5nbctyh_-182" value="" style="endArrow=none;html=1;rounded=0;" edge="1" parent="1">
          <mxGeometry width="50" height="50" relative="1" as="geometry">
            <mxPoint x="4321" y="281" as="sourcePoint" />
            <mxPoint x="4401" y="281" as="targetPoint" />
          </mxGeometry>
        </mxCell>
        <mxCell id="vR3RuELotrSQ5nbctyh_-183" value="60" style="text;html=1;align=center;verticalAlign=middle;resizable=0;points=[];autosize=1;strokeColor=none;fillColor=none;" vertex="1" parent="1">
          <mxGeometry x="4321" y="249" width="40" height="30" as="geometry" />
        </mxCell>
        <mxCell id="vR3RuELotrSQ5nbctyh_-184" value="62" style="text;html=1;align=center;verticalAlign=middle;resizable=0;points=[];autosize=1;strokeColor=none;fillColor=none;" vertex="1" parent="1">
          <mxGeometry x="4361" y="249" width="40" height="30" as="geometry" />
        </mxCell>
        <mxCell id="vR3RuELotrSQ5nbctyh_-185" value="60" style="text;html=1;align=center;verticalAlign=middle;resizable=0;points=[];autosize=1;strokeColor=none;fillColor=none;" vertex="1" parent="1">
          <mxGeometry x="4321" y="283" width="40" height="30" as="geometry" />
        </mxCell>
        <mxCell id="vR3RuELotrSQ5nbctyh_-186" value="62" style="text;html=1;align=center;verticalAlign=middle;resizable=0;points=[];autosize=1;strokeColor=none;fillColor=none;" vertex="1" parent="1">
          <mxGeometry x="4361" y="282" width="40" height="30" as="geometry" />
        </mxCell>
        <mxCell id="vR3RuELotrSQ5nbctyh_-187" value="" style="endArrow=none;html=1;rounded=0;" edge="1" parent="1">
          <mxGeometry width="50" height="50" relative="1" as="geometry">
            <mxPoint x="4360" y="720" as="sourcePoint" />
            <mxPoint x="4360" y="640" as="targetPoint" />
          </mxGeometry>
        </mxCell>
        <mxCell id="vR3RuELotrSQ5nbctyh_-188" value="" style="endArrow=none;html=1;rounded=0;" edge="1" parent="1">
          <mxGeometry width="50" height="50" relative="1" as="geometry">
            <mxPoint x="4320" y="680" as="sourcePoint" />
            <mxPoint x="4400" y="680" as="targetPoint" />
          </mxGeometry>
        </mxCell>
        <mxCell id="vR3RuELotrSQ5nbctyh_-189" value="60" style="text;html=1;align=center;verticalAlign=middle;resizable=0;points=[];autosize=1;strokeColor=none;fillColor=none;" vertex="1" parent="1">
          <mxGeometry x="4320" y="648" width="40" height="30" as="geometry" />
        </mxCell>
        <mxCell id="vR3RuELotrSQ5nbctyh_-190" value="62" style="text;html=1;align=center;verticalAlign=middle;resizable=0;points=[];autosize=1;strokeColor=none;fillColor=none;" vertex="1" parent="1">
          <mxGeometry x="4360" y="648" width="40" height="30" as="geometry" />
        </mxCell>
        <mxCell id="vR3RuELotrSQ5nbctyh_-191" value="60" style="text;html=1;align=center;verticalAlign=middle;resizable=0;points=[];autosize=1;strokeColor=none;fillColor=none;" vertex="1" parent="1">
          <mxGeometry x="4320" y="682" width="40" height="30" as="geometry" />
        </mxCell>
        <mxCell id="vR3RuELotrSQ5nbctyh_-192" value="62" style="text;html=1;align=center;verticalAlign=middle;resizable=0;points=[];autosize=1;strokeColor=none;fillColor=none;" vertex="1" parent="1">
          <mxGeometry x="4360" y="681" width="40" height="30" as="geometry" />
        </mxCell>
        <mxCell id="vR3RuELotrSQ5nbctyh_-193" value="" style="endArrow=none;html=1;rounded=0;" edge="1" parent="1">
          <mxGeometry width="50" height="50" relative="1" as="geometry">
            <mxPoint x="4160" y="721" as="sourcePoint" />
            <mxPoint x="4160" y="641" as="targetPoint" />
          </mxGeometry>
        </mxCell>
        <mxCell id="vR3RuELotrSQ5nbctyh_-194" value="" style="endArrow=none;html=1;rounded=0;" edge="1" parent="1">
          <mxGeometry width="50" height="50" relative="1" as="geometry">
            <mxPoint x="4120" y="681" as="sourcePoint" />
            <mxPoint x="4200" y="681" as="targetPoint" />
          </mxGeometry>
        </mxCell>
        <mxCell id="vR3RuELotrSQ5nbctyh_-195" value="58" style="text;html=1;align=center;verticalAlign=middle;resizable=0;points=[];autosize=1;strokeColor=none;fillColor=none;" vertex="1" parent="1">
          <mxGeometry x="4120" y="649" width="40" height="30" as="geometry" />
        </mxCell>
        <mxCell id="vR3RuELotrSQ5nbctyh_-196" value="60" style="text;html=1;align=center;verticalAlign=middle;resizable=0;points=[];autosize=1;strokeColor=none;fillColor=none;" vertex="1" parent="1">
          <mxGeometry x="4160" y="649" width="40" height="30" as="geometry" />
        </mxCell>
        <mxCell id="vR3RuELotrSQ5nbctyh_-197" value="58" style="text;html=1;align=center;verticalAlign=middle;resizable=0;points=[];autosize=1;strokeColor=none;fillColor=none;" vertex="1" parent="1">
          <mxGeometry x="4120" y="683" width="40" height="30" as="geometry" />
        </mxCell>
        <mxCell id="vR3RuELotrSQ5nbctyh_-198" value="60" style="text;html=1;align=center;verticalAlign=middle;resizable=0;points=[];autosize=1;strokeColor=none;fillColor=none;" vertex="1" parent="1">
          <mxGeometry x="4160" y="682" width="40" height="30" as="geometry" />
        </mxCell>
        <mxCell id="vR3RuELotrSQ5nbctyh_-199" value="" style="endArrow=none;html=1;rounded=0;" edge="1" parent="1">
          <mxGeometry width="50" height="50" relative="1" as="geometry">
            <mxPoint x="3960" y="721" as="sourcePoint" />
            <mxPoint x="3960" y="641" as="targetPoint" />
          </mxGeometry>
        </mxCell>
        <mxCell id="vR3RuELotrSQ5nbctyh_-200" value="" style="endArrow=none;html=1;rounded=0;" edge="1" parent="1">
          <mxGeometry width="50" height="50" relative="1" as="geometry">
            <mxPoint x="3920" y="681" as="sourcePoint" />
            <mxPoint x="4000" y="681" as="targetPoint" />
          </mxGeometry>
        </mxCell>
        <mxCell id="vR3RuELotrSQ5nbctyh_-201" value="55" style="text;html=1;align=center;verticalAlign=middle;resizable=0;points=[];autosize=1;strokeColor=none;fillColor=none;" vertex="1" parent="1">
          <mxGeometry x="3920" y="649" width="40" height="30" as="geometry" />
        </mxCell>
        <mxCell id="vR3RuELotrSQ5nbctyh_-202" value="58" style="text;html=1;align=center;verticalAlign=middle;resizable=0;points=[];autosize=1;strokeColor=none;fillColor=none;" vertex="1" parent="1">
          <mxGeometry x="3960" y="649" width="40" height="30" as="geometry" />
        </mxCell>
        <mxCell id="vR3RuELotrSQ5nbctyh_-203" value="55" style="text;html=1;align=center;verticalAlign=middle;resizable=0;points=[];autosize=1;strokeColor=none;fillColor=none;" vertex="1" parent="1">
          <mxGeometry x="3920" y="683" width="40" height="30" as="geometry" />
        </mxCell>
        <mxCell id="vR3RuELotrSQ5nbctyh_-204" value="58" style="text;html=1;align=center;verticalAlign=middle;resizable=0;points=[];autosize=1;strokeColor=none;fillColor=none;" vertex="1" parent="1">
          <mxGeometry x="3960" y="682" width="40" height="30" as="geometry" />
        </mxCell>
        <mxCell id="vR3RuELotrSQ5nbctyh_-205" value="" style="endArrow=none;html=1;rounded=0;" edge="1" parent="1">
          <mxGeometry width="50" height="50" relative="1" as="geometry">
            <mxPoint x="3760" y="721" as="sourcePoint" />
            <mxPoint x="3760" y="641" as="targetPoint" />
          </mxGeometry>
        </mxCell>
        <mxCell id="vR3RuELotrSQ5nbctyh_-206" value="" style="endArrow=none;html=1;rounded=0;" edge="1" parent="1">
          <mxGeometry width="50" height="50" relative="1" as="geometry">
            <mxPoint x="3720" y="681" as="sourcePoint" />
            <mxPoint x="3800" y="681" as="targetPoint" />
          </mxGeometry>
        </mxCell>
        <mxCell id="vR3RuELotrSQ5nbctyh_-207" value="51" style="text;html=1;align=center;verticalAlign=middle;resizable=0;points=[];autosize=1;strokeColor=none;fillColor=none;" vertex="1" parent="1">
          <mxGeometry x="3720" y="649" width="40" height="30" as="geometry" />
        </mxCell>
        <mxCell id="vR3RuELotrSQ5nbctyh_-208" value="55" style="text;html=1;align=center;verticalAlign=middle;resizable=0;points=[];autosize=1;strokeColor=none;fillColor=none;" vertex="1" parent="1">
          <mxGeometry x="3760" y="649" width="40" height="30" as="geometry" />
        </mxCell>
        <mxCell id="vR3RuELotrSQ5nbctyh_-209" value="51" style="text;html=1;align=center;verticalAlign=middle;resizable=0;points=[];autosize=1;strokeColor=none;fillColor=none;" vertex="1" parent="1">
          <mxGeometry x="3720" y="683" width="40" height="30" as="geometry" />
        </mxCell>
        <mxCell id="vR3RuELotrSQ5nbctyh_-210" value="55" style="text;html=1;align=center;verticalAlign=middle;resizable=0;points=[];autosize=1;strokeColor=none;fillColor=none;" vertex="1" parent="1">
          <mxGeometry x="3760" y="682" width="40" height="30" as="geometry" />
        </mxCell>
        <mxCell id="vR3RuELotrSQ5nbctyh_-211" value="" style="endArrow=none;html=1;rounded=0;" edge="1" parent="1">
          <mxGeometry width="50" height="50" relative="1" as="geometry">
            <mxPoint x="3560" y="719" as="sourcePoint" />
            <mxPoint x="3560" y="639" as="targetPoint" />
          </mxGeometry>
        </mxCell>
        <mxCell id="vR3RuELotrSQ5nbctyh_-212" value="" style="endArrow=none;html=1;rounded=0;" edge="1" parent="1">
          <mxGeometry width="50" height="50" relative="1" as="geometry">
            <mxPoint x="3520" y="679" as="sourcePoint" />
            <mxPoint x="3600" y="679" as="targetPoint" />
          </mxGeometry>
        </mxCell>
        <mxCell id="vR3RuELotrSQ5nbctyh_-213" value="48" style="text;html=1;align=center;verticalAlign=middle;resizable=0;points=[];autosize=1;strokeColor=none;fillColor=none;" vertex="1" parent="1">
          <mxGeometry x="3520" y="647" width="40" height="30" as="geometry" />
        </mxCell>
        <mxCell id="vR3RuELotrSQ5nbctyh_-214" value="51" style="text;html=1;align=center;verticalAlign=middle;resizable=0;points=[];autosize=1;strokeColor=none;fillColor=none;" vertex="1" parent="1">
          <mxGeometry x="3560" y="647" width="40" height="30" as="geometry" />
        </mxCell>
        <mxCell id="vR3RuELotrSQ5nbctyh_-215" value="48" style="text;html=1;align=center;verticalAlign=middle;resizable=0;points=[];autosize=1;strokeColor=none;fillColor=none;" vertex="1" parent="1">
          <mxGeometry x="3520" y="681" width="40" height="30" as="geometry" />
        </mxCell>
        <mxCell id="vR3RuELotrSQ5nbctyh_-216" value="51" style="text;html=1;align=center;verticalAlign=middle;resizable=0;points=[];autosize=1;strokeColor=none;fillColor=none;" vertex="1" parent="1">
          <mxGeometry x="3560" y="680" width="40" height="30" as="geometry" />
        </mxCell>
        <mxCell id="vR3RuELotrSQ5nbctyh_-217" value="" style="endArrow=none;html=1;rounded=0;" edge="1" parent="1">
          <mxGeometry width="50" height="50" relative="1" as="geometry">
            <mxPoint x="4600" y="520" as="sourcePoint" />
            <mxPoint x="4600" y="440" as="targetPoint" />
          </mxGeometry>
        </mxCell>
        <mxCell id="vR3RuELotrSQ5nbctyh_-218" value="" style="endArrow=none;html=1;rounded=0;" edge="1" parent="1">
          <mxGeometry width="50" height="50" relative="1" as="geometry">
            <mxPoint x="4560" y="480" as="sourcePoint" />
            <mxPoint x="4640" y="480" as="targetPoint" />
          </mxGeometry>
        </mxCell>
        <mxCell id="vR3RuELotrSQ5nbctyh_-219" value="62" style="text;html=1;align=center;verticalAlign=middle;resizable=0;points=[];autosize=1;strokeColor=none;fillColor=none;" vertex="1" parent="1">
          <mxGeometry x="4560" y="448" width="40" height="30" as="geometry" />
        </mxCell>
        <mxCell id="vR3RuELotrSQ5nbctyh_-220" value="62" style="text;html=1;align=center;verticalAlign=middle;resizable=0;points=[];autosize=1;strokeColor=none;fillColor=none;" vertex="1" parent="1">
          <mxGeometry x="4600" y="448" width="40" height="30" as="geometry" />
        </mxCell>
        <mxCell id="vR3RuELotrSQ5nbctyh_-221" value="62" style="text;html=1;align=center;verticalAlign=middle;resizable=0;points=[];autosize=1;strokeColor=none;fillColor=none;" vertex="1" parent="1">
          <mxGeometry x="4560" y="482" width="40" height="30" as="geometry" />
        </mxCell>
        <mxCell id="vR3RuELotrSQ5nbctyh_-222" value="62" style="text;html=1;align=center;verticalAlign=middle;resizable=0;points=[];autosize=1;strokeColor=none;fillColor=none;" vertex="1" parent="1">
          <mxGeometry x="4600" y="481" width="40" height="30" as="geometry" />
        </mxCell>
        <mxCell id="iGiBMfjuA98sMZuKzQdS-26" style="edgeStyle=orthogonalEdgeStyle;rounded=0;orthogonalLoop=1;jettySize=auto;html=1;exitX=1;exitY=0.5;exitDx=0;exitDy=0;entryX=0;entryY=0.5;entryDx=0;entryDy=0;" edge="1" parent="1" source="TTsi2ahICnWk6I_0Sprz-25" target="TTsi2ahICnWk6I_0Sprz-29">
          <mxGeometry relative="1" as="geometry" />
        </mxCell>
      </root>
    </mxGraphModel>
  </diagram>
</mxfile>
